<?xml version="1.0" standalone="no"?>
<!DOCTYPE svg PUBLIC "-//W3C//DTD SVG 20010904//EN"
 "http://www.w3.org/TR/2001/REC-SVG-20010904/DTD/svg10.dtd">
<svg version="1.0" xmlns="http://www.w3.org/2000/svg"
 width="368.000000pt" height="216.000000pt" viewBox="0 0 368.000000 216.000000"
 preserveAspectRatio="xMidYMid meet">
<g transform="translate(0.000000,216.000000) scale(0.100000,-0.100000)"
fill="#000000" stroke="none">
<path d="M2418 1785 c-3 -3 -2 -25 2 -48 9 -46 6 -57 -15 -57 -7 0 -22 -15
-33 -32 -18 -29 -19 -35 -6 -49 10 -11 14 -42 14 -113 l0 -98 -37 4 c-38 3
-38 3 -39 -37 -2 -68 0 -66 -45 -59 l-41 7 7 -34 c8 -37 8 -38 6 -56 -1 -16
-35 -17 -63 -2 -19 10 -20 9 -13 -46 l6 -57 -48 4 c-37 2 -47 0 -45 -11 8 -39
6 -168 -3 -166 -5 2 -25 6 -42 9 l-33 5 0 -49 c0 -28 5 -50 10 -50 6 0 10 16
10 35 0 33 2 35 34 35 18 0 38 6 44 13 6 6 10 42 9 79 0 37 2 70 4 73 3 2 19
5 36 7 18 1 31 7 30 13 -1 5 7 8 17 7 15 -3 18 -1 10 10 -6 7 -11 23 -12 36 0
17 5 22 23 22 13 0 26 -6 28 -12 3 -7 6 -4 6 8 1 11 4 24 8 28 4 4 8 19 8 34
0 24 4 27 33 26 17 -1 29 2 26 7 -3 5 -1 9 4 9 5 0 9 19 8 43 -1 41 0 42 31
42 17 0 29 3 27 7 -2 4 0 9 6 13 15 10 13 225 -2 225 -10 0 -9 3 1 9 7 5 11
13 7 19 -3 5 3 12 14 15 15 4 20 0 20 -14 0 -11 7 -19 16 -19 14 0 14 3 4 15
-7 9 -10 19 -6 23 13 12 37 -32 30 -53 -12 -34 2 -215 16 -215 7 0 15 -18 30
-70 l8 -25 1 26 c0 14 -4 30 -11 37 -9 9 -7 12 10 12 19 0 22 -5 22 -44 0 -45
10 -56 51 -56 15 0 19 -7 19 -31 0 -35 20 -59 49 -59 16 0 21 -7 22 -30 1 -16
2 -36 3 -42 0 -8 19 -14 44 -16 l42 -3 0 -82 c0 -81 10 -121 24 -98 9 14 53
14 61 1 4 -6 -5 -10 -21 -10 -55 0 -14 -11 59 -17 88 -6 94 -1 91 85 -1 47 1
52 20 52 28 0 46 18 46 47 0 13 6 23 14 23 24 0 46 29 46 61 0 22 5 29 20 29
20 0 35 34 32 73 0 12 7 17 26 17 16 0 32 8 40 20 7 11 17 20 23 20 8 0 7 -5
-1 -16 -8 -8 -9 -14 -4 -13 5 1 24 -2 42 -6 27 -6 32 -12 32 -36 0 -15 5 -31
10 -34 6 -3 10 -16 11 -28 0 -12 3 -16 6 -9 2 6 13 12 24 12 17 0 19 -5 13
-35 -5 -29 -3 -35 11 -35 12 0 15 -6 11 -22 -3 -13 -3 -17 0 -10 9 19 34 14
34 -7 0 -37 12 -51 41 -51 l29 0 0 -69 c0 -46 -4 -71 -12 -74 -7 -2 4 -8 25
-12 l37 -7 0 -295 c0 -184 4 -302 10 -314 8 -14 21 -19 55 -19 25 0 45 5 45
10 0 6 -17 10 -37 10 l-38 0 0 317 0 318 -32 -3 -32 -3 -3 83 -3 83 -36 -3
-36 -3 7 46 7 46 -31 -3 c-30 -3 -31 -2 -32 37 -1 57 -3 60 -16 47 -26 -26
-38 -13 -38 42 l0 53 -37 -1 -37 -1 2 40 c3 40 3 40 -32 41 l-36 1 0 -48 0
-47 -35 8 -35 8 0 -54 c0 -40 -4 -54 -14 -54 -8 0 -18 5 -21 10 -13 22 -25 -3
-19 -41 6 -38 1 -45 -30 -40 -26 5 -33 -9 -26 -49 l8 -42 -40 5 -39 5 2 -71 2
-72 -45 -3 c-43 -3 -45 -2 -41 21 4 22 2 24 -39 23 l-43 -1 -1 73 c0 40 3 75
8 78 21 13 -7 23 -48 17 l-46 -6 2 44 c4 69 3 71 -21 59 -37 -20 -50 -6 -43
46 l6 47 -47 -7 -47 -7 3 53 c2 51 2 53 -21 50 -43 -5 -48 3 -40 55 5 30 4 50
-3 55 -6 3 -9 37 -8 77 2 71 -10 101 -38 101 -7 0 -11 23 -11 55 0 39 -4 55
-13 55 -8 0 -16 -2 -19 -5z m836 -450 c-4 -8 -8 -15 -10 -15 -2 0 -4 7 -4 15
0 8 4 15 10 15 5 0 7 -7 4 -15z"/>
<path d="M2405 1610 c3 -5 8 -10 11 -10 2 0 4 5 4 10 0 6 -5 10 -11 10 -5 0
-7 -4 -4 -10z"/>
<path d="M2418 1563 c-2 -5 -1 -35 3 -68 l6 -60 1 68 c2 61 -1 80 -10 60z"/>
<path d="M2346 1342 c-2 -4 -1 -14 5 -22 7 -12 9 -10 9 8 0 23 -5 28 -14 14z"/>
<path d="M1510 1298 c3 -52 1 -70 -9 -64 -5 3 -25 8 -46 12 l-36 5 7 -46 7
-47 -39 3 -39 4 3 -47 3 -46 -35 8 c-19 4 -37 6 -39 3 -3 -2 -3 -22 0 -43 l5
-38 -42 5 -41 6 2 -73 2 -73 -43 0 -44 0 3 49 c2 36 -3 54 -16 69 -28 30 -165
211 -187 246 l-19 31 -21 -24 c-12 -12 -31 -38 -41 -55 -11 -18 -23 -33 -27
-33 -4 0 -8 -7 -8 -15 0 -8 -4 -15 -8 -15 -4 0 -16 -15 -27 -32 -10 -18 -21
-35 -24 -38 -15 -13 -61 -80 -61 -89 0 -6 -9 -15 -20 -21 -16 -9 -20 -8 -20 5
0 8 -11 33 -25 55 -14 22 -25 42 -25 45 0 2 -16 29 -35 59 -19 30 -35 60 -35
66 0 5 -4 10 -10 10 -5 0 -10 6 -10 14 0 8 -3 16 -7 18 -5 2 -19 25 -31 51
l-24 48 -30 -58 c-16 -32 -33 -60 -36 -63 -10 -7 -52 -82 -59 -102 -3 -10 -9
-18 -14 -18 -5 0 -9 -7 -9 -15 0 -8 -3 -15 -8 -15 -4 0 -13 -13 -20 -29 -7
-16 -24 -41 -37 -57 -16 -19 -21 -32 -15 -38 6 -6 10 -138 10 -338 l0 -328
-115 0 c-70 0 -115 -4 -115 -10 0 -6 47 -10 120 -10 78 0 120 4 120 11 0 5 3
8 8 6 4 -3 7 99 7 226 0 269 8 426 24 455 6 11 18 28 27 37 9 9 13 19 10 23
-7 6 -21 -10 -29 -33 -3 -5 -8 -7 -12 -3 -4 3 14 39 39 80 26 40 49 81 52 91
9 24 28 22 21 -3 -3 -12 -1 -18 5 -14 5 4 8 18 5 31 -5 26 39 112 58 113 5 0
4 -5 -3 -12 -17 -17 -15 -33 3 -18 12 10 15 10 15 -3 0 -8 -4 -17 -10 -19 -6
-2 -6 -8 0 -18 8 -13 10 -12 10 3 0 9 5 17 11 17 7 0 9 -10 5 -27 -4 -18 -3
-23 2 -14 12 17 25 -2 18 -27 -3 -9 -1 -24 5 -32 8 -12 9 -10 4 8 -4 13 -2 22
4 22 11 0 13 -5 15 -32 1 -7 7 -19 14 -27 7 -7 11 -20 8 -27 -3 -8 0 -11 9 -8
12 5 32 -30 27 -49 -1 -5 2 -6 7 -3 10 7 24 -21 16 -33 -6 -11 81 -54 97 -48
9 4 7 6 -4 6 -10 1 -18 4 -18 9 1 14 27 42 41 42 11 0 11 2 1 8 -9 7 -8 13 8
27 11 10 20 24 20 30 0 18 30 41 38 29 4 -5 15 -10 26 -11 14 -1 15 2 7 10 -7
7 -16 12 -21 12 -12 0 -13 5 -5 28 4 9 12 17 17 17 6 0 8 -7 4 -15 -7 -18 5
-20 22 -3 17 17 15 29 -3 22 -19 -8 -19 5 0 30 7 10 18 15 24 12 5 -4 21 6 35
21 l25 27 -3 -34 c-2 -19 -1 -27 1 -17 2 9 7 17 10 17 10 0 42 -41 55 -71 7
-16 17 -29 23 -29 5 0 4 -4 -4 -9 -14 -9 -7 -31 10 -31 6 0 7 4 4 10 -3 6 1 7
10 4 12 -5 15 -14 10 -33 -3 -16 -2 -21 3 -13 7 10 13 8 27 -8 10 -11 13 -20
7 -20 -6 0 -12 5 -14 12 -3 9 -6 9 -12 0 -4 -7 -2 -12 3 -12 6 0 12 -19 12
-42 2 -34 3 -37 6 -13 7 45 23 55 24 15 1 -40 5 -70 12 -76 9 -9 107 -11 113
-3 3 5 10 6 16 3 6 -4 5 2 -1 15 -7 12 -11 42 -10 67 3 44 4 45 31 39 20 -5
30 -2 34 9 3 8 12 12 19 10 7 -3 16 0 21 7 4 8 3 10 -4 5 -8 -5 -12 3 -12 24
0 21 4 30 13 27 6 -2 11 -13 9 -23 -2 -15 -1 -16 7 -4 5 8 8 17 5 21 -2 4 3 9
11 13 9 3 15 18 15 36 0 24 4 31 18 29 31 -3 43 1 37 11 -3 6 -1 10 4 10 6 0
11 15 11 33 0 31 1 33 40 32 37 0 40 2 46 32 3 17 3 36 -1 42 -3 7 2 11 14 11
17 0 19 -4 10 -32 -11 -41 -11 -41 1 -33 6 3 10 1 10 -5 0 -6 11 -16 25 -22
15 -7 25 -20 25 -32 1 -20 1 -21 12 -2 8 15 8 21 0 24 -17 5 -15 22 3 22 10 0
15 -10 15 -34 0 -37 23 -63 52 -58 15 3 18 -3 18 -32 0 -34 2 -36 35 -36 32 0
35 -3 35 -28 0 -40 51 -80 63 -49 3 6 6 -18 6 -54 1 -75 14 -98 56 -101 17 -1
36 -6 44 -12 11 -8 13 -8 7 2 -5 8 0 12 16 12 19 0 20 2 8 14 -19 18 -70 30
-70 16 0 -5 -8 -10 -19 -10 -17 0 -18 7 -15 65 1 36 6 69 9 75 9 15 -21 23
-56 16 -29 -6 -30 -4 -29 27 3 52 2 53 -37 49 l-36 -5 6 47 7 46 -41 -6 -41
-7 4 47 5 47 -49 -6 -50 -7 5 30 c3 17 8 35 11 40 7 12 -17 22 -56 22 -27 0
-29 -3 -28 -32z m-600 -86 c0 -5 -9 -19 -20 -32 -25 -28 -27 -13 -2 18 19 24
22 26 22 14z m-640 -282 c0 -5 -4 -10 -10 -10 -5 0 -10 5 -10 10 0 6 5 10 10
10 6 0 10 -4 10 -10z"/>
<path d="M2590 1235 c0 -8 2 -15 4 -15 2 0 6 7 10 15 3 8 1 15 -4 15 -6 0 -10
-7 -10 -15z"/>
<path d="M3198 1243 c6 -2 18 -2 25 0 6 3 1 5 -13 5 -14 0 -19 -2 -12 -5z"/>
<path d="M1470 1186 c0 -9 7 -12 20 -9 11 3 20 9 20 14 0 5 -9 9 -20 9 -11 0
-20 -6 -20 -14z"/>
<path d="M3145 1160 c-16 -7 -17 -9 -3 -9 9 -1 20 4 23 9 7 11 7 11 -20 0z"/>
<path d="M2205 1150 c3 -5 8 -10 11 -10 2 0 4 5 4 10 0 6 -5 10 -11 10 -5 0
-7 -4 -4 -10z"/>
<path d="M2660 1149 c0 -5 5 -7 10 -4 6 3 10 8 10 11 0 2 -4 4 -10 4 -5 0 -10
-5 -10 -11z"/>
<path d="M3365 1149 c-4 -6 -5 -12 -2 -15 2 -3 7 2 10 11 7 17 1 20 -8 4z"/>
<path d="M950 1121 c0 -6 4 -12 8 -15 5 -3 9 1 9 9 0 8 -4 15 -9 15 -4 0 -8
-4 -8 -9z"/>
<path d="M1690 1101 c0 -6 4 -13 10 -16 6 -3 7 1 4 9 -7 18 -14 21 -14 7z"/>
<path d="M2746 1072 c-2 -4 -1 -14 5 -22 7 -12 9 -10 9 8 0 23 -5 28 -14 14z"/>
<path d="M3080 1058 c-12 -22 -12 -22 6 -6 10 10 15 20 12 24 -4 3 -12 -5 -18
-18z"/>
<path d="M2119 1008 c5 -67 8 -63 13 15 2 27 -1 47 -7 47 -6 0 -8 -24 -6 -62z"/>
<path d="M781 1024 c0 -11 3 -14 6 -6 3 7 2 16 -1 19 -3 4 -6 -2 -5 -13z"/>
<path d="M1760 1030 c0 -5 5 -10 11 -10 5 0 7 5 4 10 -3 6 -8 10 -11 10 -2 0
-4 -4 -4 -10z"/>
<path d="M565 1000 c3 -5 8 -10 11 -10 2 0 4 5 4 10 0 6 -5 10 -11 10 -5 0 -7
-4 -4 -10z"/>
<path d="M3019 1003 c-7 -45 -6 -64 3 -69 6 -4 8 -3 5 3 -4 6 -2 24 3 42 5 19
5 31 -1 31 -5 0 -10 -3 -10 -7z"/>
<path d="M3477 993 c-2 -5 2 -26 9 -48 l12 -40 0 48 c-1 42 -10 60 -21 40z"/>
<path d="M1250 933 c0 -21 3 -24 9 -14 5 8 7 20 4 28 -8 21 -13 15 -13 -14z"/>
<path d="M1831 924 c0 -11 3 -14 6 -6 3 7 2 16 -1 19 -3 4 -6 -2 -5 -13z"/>
<path d="M3015 910 c3 -5 8 -10 11 -10 2 0 4 5 4 10 0 6 -5 10 -11 10 -5 0 -7
-4 -4 -10z"/>
<path d="M2030 889 c0 -5 5 -7 10 -4 6 3 10 8 10 11 0 2 -4 4 -10 4 -5 0 -10
-5 -10 -11z"/>
<path d="M1135 820 c3 -5 8 -10 11 -10 2 0 4 5 4 10 0 6 -5 10 -11 10 -5 0 -7
-4 -4 -10z"/>
<path d="M274 495 c0 -99 2 -138 3 -87 2 51 2 132 0 180 -1 48 -3 6 -3 -93z"/>
<path d="M272 285 c0 -16 2 -22 5 -12 2 9 2 23 0 30 -3 6 -5 -1 -5 -18z"/>
<path d="M52 203 c32 -2 84 -2 115 0 32 2 6 3 -57 3 -63 0 -89 -1 -58 -3z"/>
<path d="M3643 203 c9 -2 23 -2 30 0 6 3 -1 5 -18 5 -16 0 -22 -2 -12 -5z"/>
<path d="M228 33 c6 -2 18 -2 25 0 6 3 1 5 -13 5 -14 0 -19 -2 -12 -5z"/>
<path d="M1278 33 c441 -2 1163 -2 1605 0 441 1 80 2 -803 2 -883 0 -1244 -1
-802 -2z"/>
</g>
</svg>
