<?xml version="1.0" standalone="no"?>
<!DOCTYPE svg PUBLIC "-//W3C//DTD SVG 20010904//EN"
 "http://www.w3.org/TR/2001/REC-SVG-20010904/DTD/svg10.dtd">
<svg version="1.0" xmlns="http://www.w3.org/2000/svg"
 width="480.000000pt" height="292.000000pt" viewBox="0 0 480.000000 292.000000"
 preserveAspectRatio="xMidYMid meet">
<g transform="translate(0.000000,292.000000) scale(0.100000,-0.100000)"
fill="#000000" stroke="none">
<path d="M2374 2350 c-6 -6 -9 -29 -7 -50 2 -24 0 -40 -6 -40 -6 0 -11 4 -11
9 0 6 -9 9 -20 8 -25 -2 -25 -3 0 -29 16 -17 17 -24 8 -36 -7 -8 -11 -30 -9
-49 l3 -35 -59 6 c-54 6 -60 4 -93 -24 -31 -27 -32 -30 -12 -30 12 0 36 9 53
19 17 11 38 17 45 14 20 -7 17 -33 -3 -33 -17 0 -93 -69 -93 -84 0 -17 30 -2
57 29 17 19 36 35 42 35 24 0 8 -20 -46 -58 -26 -18 -32 -30 -35 -65 -3 -41
-4 -42 -43 -45 -22 -2 -44 -8 -50 -13 -5 -5 -19 -9 -32 -9 -13 0 -23 -4 -23
-10 0 -5 -5 -10 -12 -10 -18 0 -88 -33 -88 -42 0 -4 -4 -8 -10 -8 -5 0 -20 -8
-32 -17 -39 -30 -148 -143 -148 -153 0 -17 -38 -11 -44 8 -3 9 -3 35 0 57 10
90 9 110 -8 127 -10 10 -18 25 -18 33 0 25 -17 17 -31 -14 -9 -20 -18 -27 -31
-23 -10 2 -26 1 -35 -3 -37 -16 -43 -13 -43 17 0 27 3 30 25 26 14 -3 25 -2
25 2 0 4 9 10 20 13 30 8 24 26 -15 43 -32 13 -35 18 -35 54 0 28 4 40 14 40
16 0 29 27 16 35 -4 3 -10 -1 -13 -7 -3 -10 -11 -10 -33 -2 -38 14 -81 2 -111
-30 -32 -35 -29 -39 18 -33 l41 5 -6 -36 c-3 -20 -9 -61 -12 -89 -4 -29 -10
-53 -15 -53 -5 0 -9 -13 -9 -30 0 -16 -4 -30 -10 -30 -5 0 -10 -19 -10 -43 0
-24 -5 -48 -11 -54 -16 -16 -3 -43 20 -43 11 0 23 -5 26 -10 9 -14 27 -1 21
15 -8 22 16 35 37 21 19 -14 23 -41 7 -51 -5 -3 -10 -22 -10 -41 0 -27 -4 -34
-19 -34 -11 0 -23 -4 -26 -10 -3 -5 -19 -10 -35 -10 l-28 0 38 -38 c38 -37 39
-39 40 -117 1 -44 1 -84 1 -90 -1 -7 -250 -10 -726 -10 -634 0 -727 -2 -735
-15 -5 -8 -8 -68 -5 -132 2 -71 0 -118 -6 -118 -5 0 -9 -47 -9 -110 0 -60 3
-110 8 -110 4 0 7 -110 7 -245 0 -189 -3 -245 -12 -245 -7 0 -13 -4 -13 -10 0
-5 8 -10 19 -10 27 0 32 50 31 290 -1 113 2 213 6 224 4 10 3 107 -2 215 -5
108 -8 206 -6 219 l4 22 720 0 c636 0 721 2 735 15 12 13 15 34 11 110 -3 84
-6 96 -28 115 -14 12 -18 20 -10 17 21 -5 60 33 60 59 0 31 17 40 23 12 3 -13
2 4 -1 37 -5 66 -23 95 -58 95 -13 0 -25 7 -28 18 -3 11 -5 8 -4 -8 1 -44 -2
-50 -18 -50 -11 0 -14 5 -10 16 3 9 6 27 6 40 0 14 6 24 14 24 11 0 13 10 9
40 -4 26 -2 40 6 40 6 0 11 14 11 30 0 17 4 30 10 30 5 0 9 29 9 64 -1 36 2
75 5 88 3 13 3 17 0 11 -7 -16 -54 -17 -54 -2 0 6 9 9 20 6 11 -3 22 -1 25 4
3 4 12 6 19 3 13 -5 14 -48 2 -101 -5 -23 9 -33 16 -11 3 8 9 8 24 0 19 -11
19 -11 -1 -12 -28 0 -45 -19 -45 -50 0 -14 -7 -35 -15 -46 -8 -10 -14 -30 -14
-44 1 -22 2 -21 10 8 11 36 12 36 40 22 14 -8 28 -7 52 4 56 25 74 28 91 11
12 -12 13 -21 6 -35 -14 -26 -13 -140 1 -140 6 0 9 -6 6 -13 -4 -10 2 -13 21
-10 21 4 24 2 12 -6 -13 -9 -13 -11 2 -11 10 0 25 14 34 31 13 25 18 29 26 18
8 -11 9 -11 5 3 -3 9 2 22 11 30 11 9 14 10 8 1 -4 -7 -2 -13 3 -13 6 0 11 5
11 11 0 5 5 7 10 4 6 -3 10 -1 10 4 0 6 -7 11 -15 11 -8 0 5 18 29 40 45 41
58 48 54 29 -2 -6 4 -14 12 -16 13 -4 13 -3 0 6 -13 9 -13 11 1 11 9 0 23 8
30 18 13 15 12 16 -3 4 -10 -8 -23 -12 -29 -10 -14 5 51 48 71 48 10 0 10 -3
0 -15 -9 -10 -9 -15 -1 -15 6 0 11 4 11 8 0 5 12 13 28 19 l27 12 -27 -6 c-16
-3 -28 -3 -28 0 0 13 135 61 147 54 5 -3 18 -1 31 4 19 7 22 16 22 60 0 41 3
50 14 46 9 -4 13 -1 10 6 -2 7 16 28 41 47 25 18 45 35 45 36 0 1 -9 0 -20 -3
-21 -6 -25 3 -11 26 5 8 16 11 26 8 9 -4 14 -3 11 2 -3 5 1 11 9 15 10 3 15
19 15 46 0 22 5 40 10 40 6 0 10 9 10 20 0 11 6 20 13 20 13 0 41 -76 32 -90
-10 -16 19 -50 37 -44 13 4 18 0 18 -15 0 -12 5 -21 11 -21 5 0 7 -4 4 -10 -3
-5 -1 -10 5 -10 6 0 8 -5 4 -12 -4 -7 -3 -8 5 -4 6 4 9 12 6 17 -4 5 -2 9 3 9
10 0 35 -50 28 -57 -3 -3 0 -17 6 -32 6 -14 14 -42 17 -61 6 -31 10 -35 41
-38 19 -2 39 -8 45 -13 5 -5 17 -9 27 -9 10 0 26 -4 36 -9 9 -5 29 -14 43 -21
18 -8 25 -18 22 -30 -3 -10 0 -21 5 -24 6 -4 8 2 5 14 -6 23 -3 24 32 8 19 -8
24 -17 20 -32 -3 -12 -2 -15 1 -8 3 6 9 12 13 12 15 0 51 -41 45 -51 -3 -6 10
-27 30 -46 20 -20 36 -32 36 -26 0 5 -11 20 -25 33 -14 13 -25 28 -25 34 0 6
15 -5 34 -24 18 -19 32 -38 29 -42 -2 -5 8 -13 22 -20 18 -8 25 -18 22 -29 -3
-12 0 -16 9 -12 8 3 11 9 8 14 -3 5 2 9 10 9 8 0 21 9 29 20 8 11 16 18 18 16
8 -9 -3 99 -12 109 -12 12 -11 55 1 55 6 0 10 -10 10 -21 0 -18 3 -19 15 -9
13 11 13 14 -1 27 -17 18 -11 31 8 16 7 -5 33 -18 58 -27 42 -17 45 -17 58 1
7 10 16 18 20 18 7 0 3 45 -5 58 -3 5 -7 40 -10 78 l-4 69 35 0 c39 0 49 -14
16 -23 -10 -3 -21 0 -23 7 -2 6 -2 -25 1 -69 2 -44 9 -88 14 -97 5 -11 5 -25
-2 -37 -14 -26 -13 -29 8 -27 13 1 17 -6 15 -26 -1 -16 2 -28 8 -28 5 0 9 -21
9 -46 0 -54 -19 -51 -21 4 -1 23 -3 29 -6 15 -3 -16 -11 -23 -29 -23 -13 0
-24 -4 -24 -10 0 -5 -6 -10 -14 -10 -11 0 -14 -11 -10 -46 2 -26 0 -52 -6 -59
-8 -10 -8 -15 1 -21 7 -4 9 -3 5 4 -3 6 -2 13 3 16 12 8 21 -6 23 -37 1 -14 7
-23 14 -20 6 2 14 -3 18 -12 3 -9 10 -13 16 -10 6 3 7 -1 4 -9 -7 -18 -24 -22
-24 -6 0 6 -5 10 -11 10 -8 0 -7 -5 2 -16 9 -12 10 -20 2 -33 -6 -10 -10 -57
-9 -107 l1 -89 705 -2 c518 -2 711 -6 728 -15 15 -7 22 -21 22 -39 0 -15 5
-31 10 -34 6 -3 10 -42 10 -85 0 -43 5 -82 10 -85 13 -8 13 -182 1 -189 -5 -4
-11 -1 -13 6 -3 9 -6 9 -12 0 -4 -7 -2 -12 3 -12 8 0 11 -81 11 -251 0 -272 2
-282 53 -272 36 7 34 23 -3 23 l-30 0 0 245 c0 157 4 245 10 245 6 0 10 41 10
104 0 59 -4 108 -10 111 -5 3 -10 44 -10 90 0 92 -10 129 -43 160 -21 20 -34
20 -724 20 -387 0 -703 2 -703 5 -1 3 -2 39 -3 80 -2 80 1 88 58 142 l29 28
-31 0 c-18 0 -35 5 -38 10 -3 6 -15 10 -25 10 -13 0 -17 5 -14 14 3 8 -1 34
-9 58 -17 50 -15 58 19 58 19 0 24 -5 24 -25 0 -14 5 -25 10 -25 6 0 10 5 10
10 0 6 11 10 24 10 26 0 40 12 29 24 -8 8 -10 14 -22 84 -10 56 -28 116 -42
144 -5 10 -9 40 -9 68 l0 50 35 0 c19 0 35 4 35 8 0 14 -59 66 -66 59 -4 -4
-13 -2 -21 4 -10 9 -17 8 -28 -1 -10 -8 -28 -10 -51 -5 -34 6 -35 5 -21 -9 8
-9 23 -16 31 -16 12 0 16 -10 16 -40 0 -42 2 -40 -69 -66 -21 -7 12 -38 42
-39 32 -2 47 -13 47 -36 0 -18 -4 -20 -47 -13 -52 7 -73 19 -73 40 0 25 -17
15 -39 -22 -22 -37 -30 -145 -12 -173 8 -13 -7 -41 -22 -41 -3 0 -45 39 -93
88 -88 86 -137 122 -168 122 -9 0 -16 3 -16 8 0 10 -50 32 -71 32 -10 0 -21 5
-24 10 -3 6 -24 10 -46 10 -38 0 -39 1 -39 37 0 20 -8 45 -17 55 -17 19 -16
19 10 13 15 -4 27 -5 27 -1 0 10 -85 85 -97 86 -7 0 -13 9 -13 19 0 22 12 22
57 -2 18 -9 40 -17 50 -17 14 1 10 8 -17 31 -33 28 -39 30 -92 24 l-58 -7 6
30 c3 16 1 39 -5 51 -10 17 -9 25 4 37 19 19 10 37 -16 29 -24 -8 -42 3 -32
18 10 15 12 67 4 67 -4 0 -12 -5 -17 -10z m853 -445 c0 -10 -10 -15 -26 -15
l-26 0 25 14 c14 8 25 14 26 15 0 1 1 -6 1 -14z m-3178 -1055 c1 -64 -2 -100
-9 -100 -6 0 -10 37 -10 100 0 55 4 100 9 100 5 0 9 -45 10 -100z"/>
<path d="M2376 2203 c-12 -13 -6 -53 9 -53 9 0 15 9 15 24 0 26 -12 40 -24 29z"/>
<path d="M2231 1914 c0 -11 3 -14 6 -6 3 7 2 16 -1 19 -3 4 -6 -2 -5 -13z"/>
<path d="M2600 1840 c0 -5 5 -10 11 -10 5 0 7 5 4 10 -3 6 -8 10 -11 10 -2 0
-4 -4 -4 -10z"/>
<path d="M2078 1823 c6 -2 18 -2 25 0 6 3 1 5 -13 5 -14 0 -19 -2 -12 -5z"/>
<path d="M2700 1810 c8 -5 24 -10 34 -10 26 0 18 6 -19 14 -22 5 -26 4 -15 -4z"/>
<path d="M1650 1787 c0 -8 7 -18 16 -21 11 -4 14 -1 12 11 -4 21 -28 30 -28
10z"/>
<path d="M3001 1784 c0 -11 3 -14 6 -6 3 7 2 16 -1 19 -3 4 -6 -2 -5 -13z"/>
<path d="M1610 1760 c0 -5 5 -10 11 -10 5 0 7 5 4 10 -3 6 -8 10 -11 10 -2 0
-4 -4 -4 -10z"/>
<path d="M2805 1760 c-3 -5 -1 -10 4 -10 6 0 11 5 11 10 0 6 -2 10 -4 10 -3 0
-8 -4 -11 -10z"/>
<path d="M3126 1761 c-4 -5 3 -7 14 -4 23 6 26 13 6 13 -8 0 -17 -4 -20 -9z"/>
<path d="M2856 1726 c3 -9 13 -16 22 -16 8 0 13 1 11 3 -2 1 -12 9 -22 16 -15
12 -17 12 -11 -3z"/>
<path d="M1875 1710 c-10 -11 -14 -20 -8 -20 5 0 18 9 28 20 10 11 14 20 8 20
-5 0 -18 -9 -28 -20z"/>
<path d="M3205 1490 c3 -5 8 -10 11 -10 2 0 4 5 4 10 0 6 -5 10 -11 10 -5 0
-7 -4 -4 -10z"/>
<path d="M3231 1414 c0 -11 3 -14 6 -6 3 7 2 16 -1 19 -3 4 -6 -2 -5 -13z"/>
<path d="M3210 1370 c0 -5 5 -10 11 -10 5 0 7 5 4 10 -3 6 -8 10 -11 10 -2 0
-4 -4 -4 -10z"/>
<path d="M63 1174 c3 -3 285 -7 626 -7 341 -1 613 1 603 5 -21 8 -1238 10
-1229 2z"/>
<path d="M1448 1173 c7 -3 16 -2 19 1 4 3 -2 6 -13 5 -11 0 -14 -3 -6 -6z"/>
<path d="M3340 1170 c20 -13 157 -13 165 0 4 6 -27 10 -87 10 -64 0 -88 -3
-78 -10z"/>
<path d="M3560 1170 c19 -12 1036 -12 1065 0 11 5 -222 9 -530 9 -362 1 -545
-3 -535 -9z"/>
<path d="M4670 1170 c0 -6 -5 -8 -12 -4 -8 5 -8 1 2 -12 8 -10 15 -20 16 -22
1 -1 4 6 7 18 3 11 1 23 -4 26 -5 3 -9 0 -9 -6z"/>
<path d="M62 1140 c0 -14 2 -19 5 -12 2 6 2 18 0 25 -3 6 -5 1 -5 -13z"/>
<path d="M4681 1063 c1 -26 5 -61 9 -78 6 -23 8 -12 9 42 0 39 -3 75 -9 78 -6
4 -10 -12 -9 -42z"/>
<path d="M67 1063 c-9 -9 -9 -61 1 -66 4 -3 8 13 9 34 3 40 1 44 -10 32z"/>
<path d="M66 967 c3 -10 9 -15 12 -12 3 3 0 11 -7 18 -10 9 -11 8 -5 -6z"/>
<path d="M4708 878 c5 -108 10 -115 11 -15 0 48 -3 87 -7 87 -4 0 -6 -33 -4
-72z"/>
<path d="M66 734 c-8 -21 -8 -34 2 -34 4 0 8 11 8 25 2 29 -1 32 -10 9z"/>
<path d="M4694 485 c0 -132 2 -185 3 -117 2 68 2 176 0 240 -1 64 -3 9 -3
-123z"/>
<path d="M60 579 c0 -11 5 -17 10 -14 13 8 13 35 0 35 -5 0 -10 -9 -10 -21z"/>
<path d="M60 349 c0 -5 5 -7 10 -4 6 3 10 8 10 11 0 2 -4 4 -10 4 -5 0 -10 -5
-10 -11z"/>
<path d="M1347 33 c634 -2 1672 -2 2305 0 634 1 116 2 -1152 2 -1268 0 -1786
-1 -1153 -2z"/>
</g>
</svg>
