<?xml version="1.0" standalone="no"?>
<!DOCTYPE svg PUBLIC "-//W3C//DTD SVG 20010904//EN"
 "http://www.w3.org/TR/2001/REC-SVG-20010904/DTD/svg10.dtd">
<svg version="1.0" xmlns="http://www.w3.org/2000/svg"
 width="338.000000pt" height="512.000000pt" viewBox="0 0 338.000000 512.000000"
 preserveAspectRatio="xMidYMid meet">
<g transform="translate(0.000000,512.000000) scale(0.100000,-0.100000)"
fill="#000000" stroke="none">
<path d="M680 5054 l0 -66 -37 4 c-29 2 -38 -1 -38 -12 0 -11 9 -14 38 -12
l39 4 -5 -74 c-5 -74 -7 -90 -32 -258 -8 -52 -19 -126 -25 -165 -5 -38 -12
-88 -15 -110 -3 -22 -8 -62 -11 -90 -3 -27 -9 -59 -14 -70 -5 -11 -11 -47 -14
-80 -3 -33 -7 -73 -9 -90 -3 -16 -7 -52 -11 -80 -6 -51 -20 -140 -36 -230 -15
-87 -30 -187 -41 -275 -5 -47 -14 -114 -20 -150 -5 -36 -12 -90 -15 -120 -3
-30 -10 -59 -14 -65 -4 -5 -8 -21 -8 -35 0 -28 -33 -110 -44 -110 -5 0 -8 -9
-8 -20 0 -11 -4 -20 -8 -20 -4 0 -16 -22 -27 -50 -11 -27 -22 -50 -26 -50 -18
0 -21 -89 -25 -650 -2 -333 -7 -612 -10 -620 -3 -8 -5 -90 -4 -182 l1 -168
-33 -19 c-18 -11 -37 -23 -43 -28 -5 -4 -27 -17 -47 -28 -42 -22 -46 -30 -20
-46 16 -10 17 -39 14 -405 l-2 -394 -65 0 c-37 0 -65 -4 -65 -10 0 -11 130
-14 145 -2 13 10 14 822 0 822 -5 0 1 7 13 16 12 8 26 12 32 9 6 -3 7 1 4 9
-4 11 0 16 10 16 9 0 16 -5 16 -11 0 -5 5 -7 11 -3 8 5 7 9 -1 14 -9 6 -3 13
19 24 20 11 31 24 31 39 1 12 2 92 3 177 2 85 7 169 12 185 4 17 11 277 14
578 5 455 4 553 -8 574 -10 20 -11 31 -2 45 6 10 11 25 11 34 0 13 3 14 14 5
10 -8 16 -9 21 -1 3 5 1 10 -4 10 -6 0 -11 7 -11 16 0 11 6 14 20 9 15 -5 20
-2 20 12 0 15 -2 16 -10 3 -8 -12 -10 -10 -10 8 0 13 4 20 10 17 6 -4 9 -3 8
2 -5 16 22 74 32 68 6 -3 7 0 4 9 -4 9 -1 16 6 16 7 0 10 7 6 15 -3 9 0 18 8
21 7 3 14 15 14 27 1 12 6 56 12 97 6 41 14 99 17 128 2 28 9 52 14 52 5 0 9
27 9 60 0 61 15 83 23 33 2 -16 2 -12 0 7 -10 80 3 260 18 260 5 0 9 27 9 59
0 33 4 62 8 65 5 3 9 22 10 43 1 36 7 89 18 158 2 17 7 61 11 98 3 38 11 71
17 73 7 3 10 22 7 50 -2 26 2 56 7 68 10 19 15 49 26 166 3 25 9 60 15 79 6
19 8 38 5 43 -8 12 5 82 14 74 3 -4 5 -26 5 -49 -1 -34 0 -37 6 -17 4 14 7 33
5 43 -12 72 -15 137 -7 137 11 0 10 1 19 -85 3 -33 10 -70 16 -82 7 -13 9 -53
6 -100 -3 -43 -3 -64 1 -48 6 26 8 27 14 10 3 -11 5 -33 3 -50 -2 -16 1 -39 7
-50 6 -11 12 -40 14 -65 2 -42 9 -87 32 -235 24 -151 32 -214 34 -262 1 -28 5
-49 10 -46 4 2 7 -21 7 -51 0 -30 5 -58 11 -61 6 -4 9 -31 8 -60 -1 -30 2 -60
8 -67 11 -14 23 -98 26 -185 1 -29 5 -53 9 -53 5 0 8 -29 8 -65 0 -37 4 -65
10 -65 6 0 10 -25 10 -55 0 -30 4 -55 8 -55 4 0 16 -22 27 -50 11 -27 23 -50
27 -50 12 0 10 -28 -2 -32 -7 -2 -5 -11 4 -23 14 -19 15 -19 10 5 -5 24 -5 24
10 6 9 -11 16 -28 16 -38 0 -10 5 -18 11 -18 7 0 9 -14 6 -37 -2 -21 -2 -30 0
-20 2 9 9 17 14 17 5 0 9 -234 9 -593 0 -617 0 -617 41 -617 10 0 19 -5 21
-12 3 -9 6 -9 12 0 4 7 2 12 -3 12 -6 0 -11 5 -11 11 0 5 4 8 9 5 5 -4 11 -1
13 6 4 10 11 10 34 0 26 -11 27 -11 10 3 -11 8 -18 16 -15 18 2 1 18 9 34 17
58 28 84 80 87 172 2 66 4 72 34 94 36 28 46 30 37 8 -5 -14 -3 -14 16 -2 17
10 18 14 6 16 -8 2 -15 7 -15 12 0 6 8 11 50 24 24 7 40 26 47 55 6 24 19 41
41 53 18 10 34 18 37 18 3 0 9 0 15 0 5 0 7 6 4 14 -4 11 1 13 18 10 17 -3 18
-2 6 3 -12 5 -14 13 -9 22 5 8 14 10 22 6 11 -6 12 -5 2 6 -7 7 -13 21 -13 32
0 16 -2 17 -15 3 -8 -8 -15 -22 -15 -31 0 -25 -46 -65 -74 -65 -22 0 -27 -7
-37 -45 -8 -31 -18 -46 -33 -51 -23 -7 -87 -50 -126 -84 -22 -19 -25 -31 -29
-108 -3 -82 -5 -88 -36 -119 -20 -20 -43 -33 -59 -33 -16 0 -31 -9 -42 -25 -9
-14 -23 -25 -30 -25 -12 0 -14 89 -14 554 0 359 4 557 10 561 16 10 11 48 -10
75 -11 14 -20 29 -20 33 0 12 -32 80 -40 87 -9 7 -40 76 -40 89 0 6 -4 11 -10
11 -5 0 -10 11 -10 24 0 14 -4 28 -10 31 -5 3 -10 32 -10 64 0 31 -4 61 -9 67
-5 5 -12 36 -14 69 -7 82 -14 138 -27 220 -25 147 -47 297 -56 375 -3 19 -9
67 -15 105 -5 39 -12 93 -15 120 -3 28 -9 59 -14 70 -5 11 -12 47 -15 80 -3
33 -7 71 -9 85 -2 14 -6 52 -10 85 -4 33 -11 80 -16 105 -5 25 -14 83 -20 130
-7 47 -15 92 -18 100 -2 8 -7 62 -9 118 l-5 104 38 -4 c29 -2 39 1 39 12 0 11
-10 14 -37 12 l-38 -3 0 66 c0 51 -3 65 -15 65 -12 0 -15 -14 -15 -66z"/>
<path d="M2680 5054 l0 -66 -37 4 c-29 2 -38 -1 -38 -12 0 -11 9 -14 39 -12
l39 4 -8 -104 c-4 -56 -7 -111 -7 -120 0 -10 -3 -20 -9 -23 -5 -4 -9 -25 -9
-49 0 -24 -4 -56 -9 -72 -6 -16 -12 -51 -15 -79 -3 -27 -11 -81 -17 -120 -6
-38 -10 -85 -10 -104 1 -18 -2 -38 -8 -45 -5 -6 -11 -36 -14 -66 -10 -105 -18
-165 -24 -180 -6 -16 -8 -28 -18 -125 -4 -33 -9 -73 -12 -90 -3 -16 -9 -58
-14 -92 -9 -65 -20 -137 -39 -258 -6 -38 -12 -81 -14 -95 -10 -111 -20 -171
-27 -176 -5 -3 -9 -29 -9 -57 1 -44 -9 -71 -62 -177 -35 -69 -67 -128 -71
-131 -5 -3 -8 -272 -7 -598 0 -334 -3 -591 -8 -591 -5 0 -17 9 -27 20 -10 11
-28 20 -39 20 -26 0 -86 52 -86 73 0 9 -4 19 -10 22 -14 9 -12 71 3 96 10 17
10 23 0 26 -7 3 -13 11 -13 18 0 8 -17 27 -37 42 -21 15 -40 30 -43 33 -3 3
-23 15 -45 27 -30 16 -41 29 -43 50 -5 35 -19 53 -44 53 -23 0 -55 28 -74 65
-19 36 -18 42 6 50 27 8 26 31 -2 38 -14 4 -27 -1 -38 -13 -26 -30 -33 -24
-28 25 3 24 3 46 0 49 -2 3 -17 -1 -33 -10 -16 -8 -31 -15 -33 -17 -3 -1 -11
6 -18 15 -20 27 -48 6 -30 -22 13 -22 16 -60 4 -60 -4 0 -14 9 -22 20 -15 21
-55 27 -65 9 -10 -15 26 -52 38 -40 6 6 22 7 38 4 25 -5 28 -2 34 30 5 25 11
34 21 30 8 -3 14 -9 14 -15 0 -5 -5 -6 -12 -2 -7 4 -8 3 -4 -4 4 -7 2 -12 -5
-12 -7 0 -10 -2 -7 -5 11 -11 38 8 38 26 0 10 5 19 10 19 6 0 10 -13 10 -29 0
-31 24 -59 35 -41 14 23 27 9 22 -25 -3 -19 -2 -35 4 -35 5 0 9 -6 9 -13 0
-21 44 -57 69 -57 19 0 21 -3 11 -14 -8 -11 -9 -20 -1 -33 9 -16 10 -16 11 5
0 12 5 22 10 22 8 0 13 -26 9 -57 0 -3 24 -16 53 -29 44 -19 50 -24 34 -30
-12 -5 -21 -3 -24 4 -4 14 -22 16 -22 3 0 -5 13 -13 28 -19 16 -5 37 -18 47
-28 16 -16 18 -16 13 -2 -10 26 3 29 22 5 19 -24 24 -53 22 -130 -1 -29 -6
-46 -12 -42 -6 4 -7 -1 -3 -11 4 -11 8 -13 11 -6 5 16 22 15 22 -2 0 -7 15
-25 32 -40 27 -22 30 -28 18 -36 -10 -6 -2 -7 24 -3 28 4 37 3 32 -5 -5 -8 1
-12 14 -12 16 0 20 -4 16 -16 -5 -14 -4 -15 9 -4 9 7 18 10 22 7 3 -4 12 -2
20 4 11 9 13 117 13 585 0 365 4 581 10 592 5 9 14 29 20 45 11 31 27 36 32
10 3 -15 5 -14 10 4 3 13 2 21 -4 20 -6 -1 -13 4 -15 12 -4 10 1 11 18 6 18
-5 20 -4 9 4 -12 8 -9 20 19 73 37 70 47 111 76 333 3 22 10 74 15 115 6 41
13 98 16 125 7 71 16 87 25 45 4 -19 5 4 2 52 -4 58 -2 92 6 101 6 8 10 32 9
54 0 22 3 46 7 53 5 8 7 35 6 61 -1 26 2 50 8 54 6 3 11 33 11 65 0 32 5 62
10 65 6 3 10 31 10 61 0 31 4 54 11 54 5 0 7 5 4 10 -4 6 -2 41 4 78 16 105
23 153 28 212 3 30 9 59 14 64 5 6 9 36 9 67 0 32 5 61 11 65 7 4 9 22 6 44
-2 21 -1 43 3 50 5 8 10 -11 13 -46 3 -32 10 -88 15 -124 17 -106 24 -162 29
-220 3 -30 9 -59 14 -64 5 -6 9 -34 9 -62 0 -29 4 -55 9 -58 7 -5 21 -119 25
-206 0 -19 4 -38 9 -41 12 -9 11 -114 -2 -137 -7 -13 -8 -28 -2 -44 9 -20 10
-19 10 15 1 20 6 37 12 37 8 0 10 -28 6 -97 -2 -54 -2 -78 2 -53 6 39 8 41 14
20 3 -14 9 -45 11 -70 22 -188 29 -237 37 -255 4 -11 11 -46 14 -77 13 -146
17 -174 26 -182 5 -6 9 -27 9 -48 0 -23 11 -59 27 -89 19 -35 24 -52 16 -57
-8 -5 -7 -14 3 -32 l14 -25 -6 28 c-10 42 3 32 28 -23 13 -27 26 -50 30 -50 5
0 8 -7 8 -15 0 -21 -8 -19 -31 8 l-20 22 18 -29 c10 -16 16 -40 15 -52 -2 -12
1 -25 7 -28 6 -4 9 5 8 20 -1 15 3 29 10 31 9 3 12 -118 12 -504 1 -665 10
-1049 27 -1088 7 -16 15 -29 18 -27 18 7 27 -1 22 -20 -3 -13 -3 -17 0 -10 7
14 34 17 34 3 0 -5 -5 -11 -12 -13 -7 -3 -5 -7 6 -11 10 -4 15 -3 11 3 -10 16
25 12 41 -5 9 -8 12 -20 9 -26 -5 -6 -12 -4 -22 8 -14 17 -14 17 -6 -2 13 -33
16 -807 2 -816 -6 -3 27 -7 75 -8 53 -1 86 2 86 9 0 6 -26 10 -62 10 l-63 0 3
397 c2 325 5 401 17 412 12 12 8 17 -24 33 -21 10 -46 26 -57 36 -10 9 -32 23
-47 30 l-28 12 -1 177 c-1 98 -3 452 -5 788 l-2 609 -23 46 c-13 25 -26 47
-30 48 -5 2 -8 9 -8 15 0 12 -10 32 -49 100 -20 36 -35 104 -48 222 -3 28 -9
55 -13 60 -4 6 -8 34 -9 64 -1 29 -5 61 -10 70 -4 9 -8 32 -10 51 -1 19 -6 71
-12 115 -6 44 -13 103 -15 130 -3 28 -9 59 -14 70 -5 11 -11 43 -14 70 -16
159 -45 365 -55 385 -4 8 -9 40 -10 70 -2 30 -4 57 -6 61 -7 11 -45 281 -45
319 0 22 -4 42 -10 45 -5 3 -10 32 -11 63 0 31 -4 81 -8 109 -4 29 -4 57 -1
63 4 6 22 9 40 8 27 -2 35 1 38 16 3 16 -1 17 -37 11 l-40 -7 6 66 c5 62 4 66
-16 66 -19 0 -21 -5 -21 -66z m-650 -3124 c0 -5 -4 -10 -10 -10 -5 0 -10 5
-10 10 0 6 5 10 10 10 6 0 10 -4 10 -10z"/>
<path d="M2691 4690 c-2 -3 -4 -33 -5 -68 -1 -35 0 -58 2 -52 3 7 10 4 19 -7
14 -17 14 -17 7 2 -4 11 -10 45 -14 75 -4 30 -8 53 -9 50z"/>
<path d="M703 4565 c0 -27 2 -38 4 -22 2 15 2 37 0 50 -2 12 -4 0 -4 -28z"/>
<path d="M2672 4520 c0 -19 2 -27 5 -17 2 9 2 25 0 35 -3 9 -5 1 -5 -18z"/>
<path d="M2703 4500 c0 -25 2 -35 4 -22 2 12 2 32 0 45 -2 12 -4 2 -4 -23z"/>
<path d="M672 4480 c0 -19 2 -27 5 -17 2 9 2 25 0 35 -3 9 -5 1 -5 -18z"/>
<path d="M2722 4430 c0 -14 2 -19 5 -12 2 6 2 18 0 25 -3 6 -5 1 -5 -13z"/>
<path d="M2656 4421 c-4 -7 -5 -15 -2 -18 9 -9 19 4 14 18 -4 11 -6 11 -12 0z"/>
<path d="M2721 4384 c0 -11 3 -14 6 -6 3 7 2 16 -1 19 -3 4 -6 -2 -5 -13z"/>
<path d="M653 4355 c0 -22 2 -30 4 -17 2 12 2 30 0 40 -3 9 -5 -1 -4 -23z"/>
<path d="M730 4316 c0 -20 2 -36 4 -36 8 0 12 61 4 66 -4 3 -8 -11 -8 -30z"/>
<path d="M2738 4300 c2 -16 6 -30 8 -30 2 0 4 14 4 30 0 17 -4 30 -8 30 -5 0
-7 -13 -4 -30z"/>
<path d="M2636 4285 c-3 -8 -1 -15 4 -15 6 0 10 7 10 15 0 8 -2 15 -4 15 -2 0
-6 -7 -10 -15z"/>
<path d="M757 4233 c-4 -3 -7 -22 -7 -41 0 -45 10 -36 13 12 4 39 4 39 -6 29z"/>
<path d="M2758 4145 c2 -14 6 -25 8 -25 2 0 4 11 4 25 0 14 -4 25 -9 25 -4 0
-6 -11 -3 -25z"/>
<path d="M2622 4140 c0 -14 2 -19 5 -12 2 6 2 18 0 25 -3 6 -5 1 -5 -13z"/>
<path d="M611 4134 c0 -11 3 -14 6 -6 3 7 2 16 -1 19 -3 4 -6 -2 -5 -13z"/>
<path d="M773 4085 c0 -22 2 -30 4 -17 2 12 2 30 0 40 -3 9 -5 -1 -4 -23z"/>
<path d="M2602 4055 c0 -16 2 -22 5 -12 2 9 2 23 0 30 -3 6 -5 -1 -5 -18z"/>
<path d="M2775 4061 c-3 -10 -1 -29 4 -42 9 -21 10 -19 10 19 1 45 -4 54 -14
23z"/>
<path d="M601 4044 c0 -11 3 -14 6 -6 3 7 2 16 -1 19 -3 4 -6 -2 -5 -13z"/>
<path d="M599 3972 c5 -34 6 -35 9 -8 2 16 0 32 -5 37 -5 5 -7 -7 -4 -29z"/>
<path d="M2792 3935 c0 -16 2 -22 5 -12 2 9 2 23 0 30 -3 6 -5 -1 -5 -18z"/>
<path d="M2580 3928 c0 -7 5 -20 10 -28 8 -12 10 -11 10 7 0 12 -4 25 -10 28
-5 3 -10 0 -10 -7z"/>
<path d="M583 3880 c0 -25 2 -35 4 -22 2 12 2 32 0 45 -2 12 -4 2 -4 -23z"/>
<path d="M563 3750 c0 -25 2 -35 4 -22 2 12 2 32 0 45 -2 12 -4 2 -4 -23z"/>
<path d="M2552 3680 c0 -19 2 -27 5 -17 2 9 2 25 0 35 -3 9 -5 1 -5 -18z"/>
<path d="M821 3684 c0 -11 3 -14 6 -6 3 7 2 16 -1 19 -3 4 -6 -2 -5 -13z"/>
<path d="M541 3633 c0 -25 1 -26 9 -8 12 27 12 35 0 35 -5 0 -10 -12 -9 -27z"/>
<path d="M843 3600 c0 -25 2 -35 4 -22 2 12 2 32 0 45 -2 12 -4 2 -4 -23z"/>
<path d="M2840 3575 c0 -27 2 -46 5 -44 7 8 9 78 2 85 -4 4 -7 -14 -7 -41z"/>
<path d="M2531 3524 c0 -11 3 -14 6 -6 3 7 2 16 -1 19 -3 4 -6 -2 -5 -13z"/>
<path d="M531 3504 c0 -11 3 -14 6 -6 3 7 2 16 -1 19 -3 4 -6 -2 -5 -13z"/>
<path d="M862 3480 c0 -14 2 -19 5 -12 2 6 2 18 0 25 -3 6 -5 1 -5 -13z"/>
<path d="M2862 3450 c0 -14 2 -19 5 -12 2 6 2 18 0 25 -3 6 -5 1 -5 -13z"/>
<path d="M874 3387 c-2 -7 0 -24 5 -38 9 -21 10 -20 8 13 -2 41 -5 46 -13 25z"/>
<path d="M2883 3330 c0 -30 2 -43 4 -27 2 15 2 39 0 55 -2 15 -4 2 -4 -28z"/>
<path d="M2501 3324 c0 -11 3 -14 6 -6 3 7 2 16 -1 19 -3 4 -6 -2 -5 -13z"/>
<path d="M492 3275 c0 -16 2 -22 5 -12 2 9 2 23 0 30 -3 6 -5 -1 -5 -18z"/>
<path d="M2891 3248 c1 -7 5 -24 9 -38 8 -24 8 -24 9 7 1 17 -3 35 -9 38 -5 3
-10 0 -9 -7z"/>
<path d="M891 3240 c0 -8 4 -24 9 -35 5 -13 9 -14 9 -5 0 8 -4 24 -9 35 -5 13
-9 14 -9 5z"/>
<path d="M2483 3205 c0 -22 2 -30 4 -17 2 12 2 30 0 40 -3 9 -5 -1 -4 -23z"/>
<path d="M2481 3144 c0 -11 3 -14 6 -6 3 7 2 16 -1 19 -3 4 -6 -2 -5 -13z"/>
<path d="M913 3105 c0 -22 2 -30 4 -17 2 12 2 30 0 40 -3 9 -5 -1 -4 -23z"/>
<path d="M2911 3108 c1 -7 5 -24 9 -38 7 -22 8 -21 9 13 1 20 -3 37 -9 37 -5
0 -10 -6 -9 -12z"/>
<path d="M2462 3085 c0 -16 2 -22 5 -12 2 9 2 23 0 30 -3 6 -5 -1 -5 -18z"/>
<path d="M453 3085 c-3 -9 -3 -18 -1 -21 3 -3 8 4 11 16 6 23 -1 27 -10 5z"/>
<path d="M946 2995 c4 -8 8 -15 10 -15 2 0 4 7 4 15 0 8 -4 15 -10 15 -5 0 -7
-7 -4 -15z"/>
<path d="M2426 2984 c-4 -9 -4 -19 -1 -22 2 -3 7 3 11 12 4 9 4 19 1 22 -2 3
-7 -3 -11 -12z"/>
<path d="M2955 2989 c-4 -6 -5 -12 -2 -15 2 -3 7 2 10 11 7 17 1 20 -8 4z"/>
<path d="M965 2960 c3 -5 8 -10 11 -10 2 0 4 5 4 10 0 6 -5 10 -11 10 -5 0 -7
-4 -4 -10z"/>
<path d="M2318 2768 c-2 -7 -1 -40 3 -73 l6 -60 1 73 c2 68 -1 88 -10 60z"/>
<path d="M316 2754 c-4 -9 -4 -19 -1 -22 2 -3 7 3 11 12 4 9 4 19 1 22 -2 3
-7 -3 -11 -12z"/>
<path d="M1054 2715 c-3 -8 -4 -20 -2 -27 3 -7 7 -1 10 15 6 29 1 36 -8 12z"/>
<path d="M3051 2183 c1 -296 5 -549 9 -563 5 -14 8 228 9 538 0 349 -4 562
-10 562 -6 0 -9 -203 -8 -537z"/>
<path d="M1047 2548 c-9 -153 -7 -632 2 -803 5 -85 8 51 9 398 1 290 0 527 -1
527 -2 0 -7 -55 -10 -122z"/>
<path d="M2321 2594 c0 -11 3 -14 6 -6 3 7 2 16 -1 19 -3 4 -6 -2 -5 -13z"/>
<path d="M2324 2440 c0 -69 1 -97 3 -62 2 34 2 90 0 125 -2 34 -3 6 -3 -63z"/>
<path d="M335 2075 c0 -220 1 -309 2 -197 2 112 2 292 0 400 -1 108 -2 17 -2
-203z"/>
<path d="M3154 2170 c0 -168 2 -236 3 -152 2 83 2 221 0 305 -1 83 -3 15 -3
-153z"/>
<path d="M1750 2181 c0 -6 4 -13 10 -16 6 -3 7 1 4 9 -7 18 -14 21 -14 7z"/>
<path d="M1497 2149 c7 -7 15 -10 18 -7 3 3 -2 9 -12 12 -14 6 -15 5 -6 -5z"/>
<path d="M1510 2050 c0 -5 4 -10 9 -10 6 0 13 5 16 10 3 6 -1 10 -9 10 -9 0
-16 -4 -16 -10z"/>
<path d="M2323 1985 c0 -27 2 -38 4 -22 2 15 2 37 0 50 -2 12 -4 0 -4 -28z"/>
<path d="M1438 1943 c7 -3 16 -2 19 1 4 3 -2 6 -13 5 -11 0 -14 -3 -6 -6z"/>
<path d="M2050 1880 c0 -5 5 -10 11 -10 5 0 7 5 4 10 -3 6 -8 10 -11 10 -2 0
-4 -4 -4 -10z"/>
<path d="M2053 1805 c0 -27 2 -38 4 -22 2 15 2 37 0 50 -2 12 -4 0 -4 -28z"/>
<path d="M2315 1651 c0 -16 3 -27 8 -24 4 2 7 15 7 29 0 13 -3 24 -7 24 -5 0
-8 -13 -8 -29z"/>
<path d="M1240 1640 c-8 -5 -12 -12 -9 -15 4 -3 12 1 19 10 14 17 11 19 -10 5z"/>
<path d="M3065 1567 c3 -10 5 -96 6 -190 0 -95 4 -163 8 -152 5 11 9 83 9 160
1 106 -2 147 -13 170 -9 17 -13 22 -10 12z"/>
<path d="M1108 1563 c7 -3 16 -2 19 1 4 3 -2 6 -13 5 -11 0 -14 -3 -6 -6z"/>
<path d="M301 1224 c0 -11 3 -14 6 -6 3 7 2 16 -1 19 -3 4 -6 -2 -5 -13z"/>
<path d="M3080 1196 c0 -2 7 -9 15 -16 13 -11 14 -10 9 4 -5 14 -24 23 -24 12z"/>
<path d="M3125 1149 c-4 -6 -5 -12 -2 -15 2 -3 7 2 10 11 7 17 1 20 -8 4z"/>
<path d="M171 1094 c0 -11 3 -14 6 -6 3 7 2 16 -1 19 -3 4 -6 -2 -5 -13z"/>
<path d="M178 1050 c-4 -14 -7 -185 -7 -380 1 -248 4 -337 10 -295 11 71 7
711 -3 675z"/>
<path d="M3205 665 c0 -209 1 -296 2 -193 2 103 2 274 0 380 -1 106 -2 22 -2
-187z"/>
<path d="M75 250 c-3 -5 -1 -10 4 -10 6 0 11 5 11 10 0 6 -2 10 -4 10 -3 0 -8
-4 -11 -10z"/>
<path d="M3318 243 c12 -2 32 -2 45 0 12 2 2 4 -23 4 -25 0 -35 -2 -22 -4z"/>
<path d="M1018 73 c437 -2 1148 -2 1580 0 433 1 76 2 -793 2 -869 0 -1223 -1
-787 -2z"/>
<path d="M6 43 c-3 -3 -6 -10 -6 -15 0 -4 761 -8 1690 -8 1500 0 1690 2 1690
15 0 13 -189 15 -1684 15 -925 0 -1686 -3 -1690 -7z"/>
</g>
</svg>
