<?xml version="1.0" standalone="no"?>
<!DOCTYPE svg PUBLIC "-//W3C//DTD SVG 20010904//EN"
 "http://www.w3.org/TR/2001/REC-SVG-20010904/DTD/svg10.dtd">
<svg version="1.0" xmlns="http://www.w3.org/2000/svg"
 width="324.000000pt" height="372.000000pt" viewBox="0 0 324.000000 372.000000"
 preserveAspectRatio="xMidYMid meet">
<g transform="translate(0.000000,372.000000) scale(0.100000,-0.100000)"
fill="#000000" stroke="none">
<path d="M1339 3583 c0 -5 0 -48 0 -98 2 -151 -17 -449 -29 -453 -8 -3 -8 -8
0 -18 14 -16 4 -184 -10 -184 -3 0 -11 -13 -18 -30 -7 -16 -60 -77 -118 -135
-63 -63 -104 -113 -104 -125 0 -11 -4 -20 -10 -20 -5 0 -10 -11 -10 -24 0 -14
-4 -28 -10 -31 -5 -3 -10 -24 -10 -45 0 -21 5 -42 10 -45 6 -3 10 -13 10 -22
0 -9 9 -27 21 -39 l20 -22 -40 -41 c-30 -31 -41 -50 -41 -73 0 -40 41 -79 92
-86 21 -2 38 -10 38 -17 0 -16 -33 -45 -51 -45 -9 -1 -5 -8 11 -23 19 -17 24
-30 22 -54 -2 -18 -7 -33 -13 -33 -5 0 -9 -7 -9 -15 0 -8 5 -15 10 -15 6 0 10
-75 10 -204 l0 -204 -57 1 -58 1 1 -64 c0 -36 3 -188 5 -338 2 -149 1 -272 -3
-272 -5 0 -8 -11 -8 -25 0 -14 5 -25 12 -25 9 0 9 -3 0 -12 -15 -15 -16 -144
-2 -153 7 -4 10 -61 9 -155 l-2 -149 -73 -3 -73 -3 5 188 c3 125 1 187 -6 187
-5 0 -10 9 -10 20 0 11 4 20 9 20 5 0 7 54 3 126 -3 73 0 153 6 192 22 127 23
182 4 189 -32 12 -139 102 -165 140 -14 21 -36 61 -49 88 -13 28 -25 52 -28
55 -3 3 -12 19 -20 35 -8 17 -17 32 -20 35 -3 3 -19 33 -35 68 -16 34 -32 62
-36 62 -7 0 -39 -62 -39 -76 0 -4 -6 -15 -14 -23 -7 -9 -33 -54 -57 -101 -24
-47 -46 -87 -49 -90 -3 -3 -13 -20 -23 -38 -22 -39 -92 -105 -153 -146 -44
-29 -52 -40 -34 -51 5 -3 7 -12 3 -20 -8 -24 7 -126 18 -119 7 4 10 -53 8
-161 -1 -133 1 -169 12 -176 12 -7 11 -11 -3 -26 -15 -14 -33 -17 -103 -14
-71 2 -85 0 -85 -13 0 -12 16 -16 82 -19 l83 -3 -82 -2 c-79 -2 -83 -3 -83
-24 0 -13 4 -18 8 -13 9 12 42 16 42 5 0 -5 8 -6 18 -4 9 2 38 5 65 7 l47 4 0
-48 c0 -58 -10 -63 -114 -57 -42 2 -66 -1 -66 -8 0 -10 162 -17 187 -7 9 3 13
27 14 72 1 50 3 60 10 41 l8 -25 -2 25 c-2 19 -7 24 -25 23 -28 -3 -28 0 2 30
17 17 26 40 30 78 8 77 12 309 5 297 -8 -12 -19 53 -19 109 0 31 6 48 22 63
12 11 17 20 10 20 -28 0 -44 -48 -38 -112 14 -141 18 -370 7 -381 -8 -8 -11
37 -11 160 0 104 -4 174 -10 178 -5 3 -10 35 -10 70 l0 64 58 45 c32 24 72 61
88 82 16 20 35 43 41 50 7 7 13 19 13 27 0 8 7 20 15 27 8 7 15 19 15 26 0 8
5 14 10 14 17 0 11 -25 -10 -40 -11 -8 -20 -24 -19 -35 0 -19 1 -19 9 2 5 12
18 28 29 34 15 10 17 17 10 37 -11 28 -3 44 11 22 12 -20 24 31 16 66 -5 17
-3 23 4 19 5 -3 10 1 10 9 0 25 37 79 45 66 4 -6 0 -19 -9 -29 -18 -19 -22
-46 -6 -36 6 3 10 1 10 -6 0 -8 4 -8 15 1 9 7 16 11 18 9 1 -2 10 -17 20 -34
10 -16 27 -50 39 -75 12 -25 24 -47 28 -50 3 -3 14 -22 25 -43 11 -22 30 -50
43 -64 12 -13 20 -28 17 -33 -8 -14 26 -41 44 -35 11 3 28 -6 46 -25 16 -16
34 -30 39 -30 7 0 10 -22 8 -60 -5 -74 -18 -80 -17 -7 0 40 -4 52 -15 52 -11
0 -15 -12 -16 -45 l-2 -45 7 45 c6 44 7 43 16 -35 9 -76 12 -264 6 -385 -2
-30 0 -111 4 -180 3 -69 2 -152 -3 -185 -10 -60 -10 -60 -11 -15 -1 33 -4 41
-11 29 -13 -23 3 -75 23 -71 8 1 18 -1 20 -5 7 -12 177 -3 177 8 0 6 -3 8 -8
6 -4 -3 -7 104 -7 237 0 187 3 240 13 238 15 -3 15 -1 1 35 -13 35 -13 561 0
596 5 14 16 27 23 30 7 3 3 6 -10 6 -12 1 -21 -2 -21 -6 4 -22 -2 -43 -11 -43
-5 0 -10 15 -10 34 0 33 1 34 48 38 26 3 59 10 75 17 l27 11 -2 247 -3 248 -2
-247 c-2 -154 -7 -248 -13 -248 -6 0 -10 96 -10 258 0 182 -3 261 -12 270 -8
8 -6 16 12 30 18 14 21 24 16 48 -4 17 -13 31 -21 31 -8 0 -12 -4 -9 -9 3 -4
0 -8 -5 -8 -6 0 -11 5 -11 10 0 6 -9 10 -19 10 -25 0 -62 46 -54 68 7 19 60
72 72 72 14 0 -1 53 -21 74 -10 11 -18 28 -18 38 0 10 -5 27 -12 37 -9 15 -8
22 6 37 14 13 20 14 26 5 5 -9 9 -4 12 14 4 19 2 23 -5 16 -16 -16 -27 -14
-27 4 0 9 7 18 15 21 8 4 12 10 9 15 -14 23 116 162 142 152 20 -7 46 17 41
37 -2 9 4 28 14 41 10 13 19 29 19 36 0 6 7 19 16 28 9 9 19 37 22 62 4 35 7
42 14 28 6 -9 7 -27 4 -41 -4 -13 -2 -24 3 -24 5 0 14 -14 21 -31 7 -17 19
-37 27 -45 12 -12 12 -14 -2 -14 -21 0 -9 -20 13 -20 9 0 25 -12 35 -25 14
-20 15 -24 2 -19 -8 3 -15 4 -15 0 0 -3 18 -10 41 -16 31 -9 39 -15 35 -28 -3
-9 -1 -24 5 -32 8 -11 9 -9 3 10 -6 22 -5 24 10 11 9 -8 15 -20 12 -28 -3 -7
1 -13 11 -13 38 0 76 -84 78 -172 1 -38 -1 -68 -5 -68 -4 0 -14 -18 -23 -40
-14 -36 -14 -42 0 -53 37 -30 63 -61 63 -76 0 -22 -17 -47 -26 -38 -4 4 -2 13
4 19 15 15 16 38 2 38 -5 0 -13 -18 -16 -41 -4 -22 -10 -36 -13 -31 -3 5 -15
6 -26 1 -11 -4 -14 -8 -7 -8 23 -2 2 -21 -23 -21 -22 0 -23 -2 -14 -32 5 -17
13 -36 19 -42 6 -6 1 -21 -17 -45 -17 -22 -21 -32 -11 -29 24 10 28 -28 27
-262 -1 -154 2 -214 11 -225 18 -22 57 -19 71 6 8 15 14 18 22 10 17 -17 31
-13 17 4 -14 17 -7 19 38 6 20 -6 30 -6 27 0 -4 5 -15 9 -26 9 -10 0 -19 5
-19 11 0 6 7 8 16 5 9 -3 28 -8 42 -11 26 -5 26 -5 5 6 -32 17 -29 26 7 21 31
-4 42 11 14 22 -37 14 -61 6 -141 -48 -23 -15 -47 -26 -53 -24 -7 2 -11 85
-11 258 0 231 1 255 17 267 17 12 17 14 -2 28 -10 8 -22 15 -26 15 -5 0 -8 9
-8 21 0 13 5 19 13 16 16 -6 68 15 90 37 25 26 22 90 -5 116 -12 11 -25 20
-29 20 -19 0 -19 41 -1 61 37 39 39 120 4 204 -21 52 -44 79 -149 177 -28 25
-62 68 -77 94 -34 61 -55 172 -38 208 7 16 7 26 1 28 -6 2 -12 108 -16 281 -3
152 -10 277 -15 277 -4 0 -8 -3 -9 -7z m21 -557 c0 -3 -4 -8 -10 -11 -5 -3
-10 -1 -10 4 0 6 5 11 10 11 6 0 10 -2 10 -4z m-100 -325 c0 -5 -7 -12 -16
-15 -24 -9 -28 -7 -14 9 14 17 30 20 30 6z m-710 -1110 c0 -12 -20 -25 -27
-18 -7 7 6 27 18 27 5 0 9 -4 9 -9z m-93 -103 c-3 -7 -5 -2 -5 12 0 14 2 19 5
13 2 -7 2 -19 0 -25z m309 -245 c-7 -7 -26 7 -26 19 0 6 6 6 15 -2 9 -7 13
-15 11 -17z m264 -452 c0 -6 -4 -13 -10 -16 -5 -3 -10 1 -10 9 0 9 5 16 10 16
6 0 10 -4 10 -9z"/>
<path d="M2767 3584 c-4 -4 -7 -127 -7 -274 0 -188 -3 -269 -12 -278 -8 -8 -8
-15 2 -27 15 -18 7 -138 -10 -143 -6 -2 -10 -11 -10 -20 0 -29 -52 -96 -141
-183 -97 -95 -119 -136 -127 -226 -5 -66 6 -105 38 -130 13 -11 10 -17 -22
-47 -43 -39 -56 -77 -38 -110 15 -29 61 -56 93 -56 20 0 25 -5 24 -20 -1 -11
-5 -20 -10 -20 -5 0 -15 -7 -24 -16 -14 -14 -14 -16 1 -27 14 -11 15 -43 13
-267 -2 -243 -3 -255 -21 -258 -11 -2 -24 2 -30 10 -21 28 -109 70 -138 66
-22 -4 -28 -1 -26 11 2 9 14 18 28 19 34 5 50 20 50 48 0 24 -27 64 -43 64
-11 0 -31 22 -36 40 -12 46 -12 60 -2 60 17 0 13 28 -6 39 -14 8 -15 13 -5 35
10 23 8 27 -26 48 -20 12 -43 22 -49 20 -7 -2 -13 2 -13 8 0 5 -21 10 -46 10
-26 0 -43 4 -39 9 7 13 -53 81 -71 81 -24 0 -77 -58 -72 -77 4 -16 -1 -18 -41
-15 -38 3 -54 -2 -93 -28 -52 -35 -57 -44 -30 -60 16 -10 15 -12 -5 -26 -23
-17 -31 -44 -13 -44 27 0 -10 -91 -43 -106 -46 -20 -47 -94 -1 -103 10 -1 27
-10 37 -19 20 -18 23 -2 5 27 -7 11 -19 16 -30 13 -10 -2 -18 1 -18 7 0 6 6
11 13 11 9 0 8 3 -2 9 -11 7 -11 9 0 14 10 4 10 6 2 6 -7 1 -13 6 -13 11 0 6
3 9 8 9 44 -7 81 65 79 154 l-2 59 32 -5 c18 -3 35 -1 38 4 4 5 -3 9 -14 9
-27 0 -27 16 -1 23 11 3 20 1 20 -4 0 -5 19 -8 43 -7 l42 1 -37 4 c-45 5 -51
23 -9 23 41 0 61 9 54 26 -3 8 -1 14 5 14 6 0 13 -6 15 -12 4 -10 6 -10 6 0 1
6 11 12 24 12 18 0 19 -2 7 -11 -13 -9 -13 -10 0 -6 8 2 15 10 15 18 0 16 -24
20 -42 6 -9 -7 -13 -5 -13 7 0 11 9 16 29 16 29 0 57 -22 47 -38 -6 -9 42 -37
57 -33 5 1 24 -4 43 -11 35 -12 47 -38 17 -38 -23 0 -12 -9 18 -13 22 -4 24
-8 23 -53 -1 -27 0 -43 3 -36 3 6 9 12 15 12 6 0 7 -7 4 -16 -3 -8 -1 -25 6
-37 7 -12 13 -28 14 -36 2 -8 6 -26 9 -39 6 -23 7 -24 20 -6 7 11 17 15 22 10
4 -5 2 -11 -4 -13 -8 -3 -11 -15 -8 -31 5 -23 4 -24 -4 -7 -9 19 -10 19 -10
-2 -1 -13 -5 -23 -11 -23 -15 0 -12 -50 3 -54 6 -2 30 -9 52 -15 22 -6 56 -24
75 -41 45 -39 76 -47 109 -27 20 12 26 24 27 51 l1 36 -4 -35 c-2 -19 -10 -35
-16 -35 -15 0 -12 419 3 464 8 22 6 35 -5 52 -16 26 -19 38 -7 30 4 -2 14 -1
22 5 9 5 10 9 3 9 -6 0 -11 12 -10 26 2 22 -5 29 -42 43 -29 12 -45 25 -46 37
-1 10 -5 30 -9 44 -7 28 -1 40 29 56 11 6 20 20 21 31 1 11 4 33 8 49 7 26 6
27 -7 10 -13 -18 -14 -17 -25 10 -13 35 -22 134 -12 134 4 0 10 13 13 28 7 33
42 80 52 70 4 -4 -2 -17 -14 -29 -12 -13 -21 -32 -20 -43 0 -17 3 -15 14 10 8
17 21 36 29 43 11 10 13 18 6 31 -7 13 -5 21 5 30 9 8 15 8 15 2 0 -6 -6 -12
-12 -14 -7 -3 1 -5 19 -5 27 0 29 2 17 14 -8 8 -14 18 -14 23 0 15 21 23 33
11 8 -8 8 -11 -2 -11 -7 0 -9 -5 -5 -11 5 -8 10 -6 16 6 6 11 7 20 1 26 -9 9
60 89 76 89 4 0 13 20 20 45 14 48 35 63 25 18 -4 -21 -3 -24 5 -13 6 8 8 33
5 55 -6 38 -5 39 9 20 9 -11 13 -31 11 -45 -3 -14 2 -41 11 -60 13 -30 15 -31
10 -7 -3 15 -1 27 5 27 5 0 10 -7 10 -15 0 -8 9 -24 20 -35 26 -26 25 -39 -2
-34 -20 4 -20 3 2 -6 14 -6 33 -21 43 -33 10 -12 16 -17 13 -10 -13 24 12 22
28 -2 9 -14 21 -23 26 -20 6 4 10 2 10 -4 0 -5 -8 -15 -17 -20 -10 -6 -13 -11
-6 -11 6 0 15 5 18 10 11 17 21 11 48 -31 29 -43 33 -59 17 -59 -5 0 -7 -7 -4
-15 6 -14 8 -13 20 2 12 16 13 15 14 -15 0 -20 4 -31 10 -27 6 4 10 -12 10
-41 0 -41 -2 -46 -19 -41 -17 4 -18 2 -9 -13 9 -13 7 -23 -5 -41 -25 -34 -21
-53 18 -96 36 -39 49 -90 20 -79 -10 4 -15 -1 -15 -15 0 -16 -4 -19 -20 -14
-21 7 -95 -15 -81 -24 4 -4 11 -21 14 -40 6 -27 4 -32 -9 -27 -8 3 -12 2 -9
-4 3 -5 1 -19 -5 -30 -9 -16 -8 -18 5 -14 8 4 15 12 15 19 0 7 7 15 15 19 17
6 20 -5 4 -21 -11 -11 -7 -292 6 -412 6 -49 4 -65 -6 -72 -10 -6 -11 -9 -1 -9
6 0 12 -7 12 -16 0 -11 -5 -14 -17 -10 -10 4 -14 4 -10 0 10 -11 79 -34 100
-34 13 0 17 -8 17 -34 0 -19 -5 -38 -11 -42 -8 -5 -10 1 -7 20 3 14 3 28 -1
30 -9 6 -2 -552 8 -599 4 -22 5 -83 1 -135 l-7 -95 -2 110 c-3 100 -4 106 -13
65 -7 -31 -7 -70 1 -125 6 -44 11 -144 11 -221 0 -120 2 -143 16 -148 26 -10
144 -7 144 4 0 6 -30 10 -70 10 l-71 0 2 143 c1 78 5 144 9 147 9 6 11 90 12
505 1 154 2 307 2 340 l1 59 -47 -3 -48 -3 0 226 c0 144 -4 226 -10 226 -20 0
-10 59 13 75 l22 16 -20 17 c-12 9 -27 25 -34 35 -13 16 -11 17 16 15 41 -3
100 36 108 72 8 35 -4 58 -49 98 -30 26 -33 32 -20 43 29 24 44 68 44 128 0
33 -4 62 -9 66 -5 3 -13 19 -16 37 -5 21 -40 64 -114 137 -72 72 -112 121
-125 151 -10 25 -22 53 -27 62 -13 26 -11 112 3 126 10 10 10 14 0 21 -10 6
-14 74 -18 277 -4 249 -9 296 -27 278z m133 -895 c0 -6 -4 -7 -10 -4 -5 3 -10
11 -10 16 0 6 5 7 10 4 6 -3 10 -11 10 -16z m-420 -543 c0 -6 -7 -2 -15 8 -8
11 -15 25 -15 30 0 6 7 2 15 -8 8 -11 15 -25 15 -30z m555 -36 c4 -6 -6 -10
-22 -10 -22 0 -25 2 -13 10 19 12 27 12 35 0z m-755 -218 c0 -4 -9 -8 -19 -8
-11 0 -17 4 -15 8 3 4 12 8 20 8 8 0 14 -4 14 -8z m7 -74 c-3 -8 -6 -5 -6 6
-1 11 2 17 5 13 3 -3 4 -12 1 -19z m93 -189 c0 -5 -4 -9 -10 -9 -5 0 -10 7
-10 16 0 8 5 12 10 9 6 -3 10 -10 10 -16z"/>
<path d="M1423 3320 c0 -47 2 -66 4 -42 2 23 2 61 0 85 -2 23 -4 4 -4 -43z"/>
<path d="M2862 3340 c0 -14 2 -19 5 -12 2 6 2 18 0 25 -3 6 -5 1 -5 -13z"/>
<path d="M2871 3144 c0 -11 3 -14 6 -6 3 7 2 16 -1 19 -3 4 -6 -2 -5 -13z"/>
<path d="M2852 3100 c0 -14 2 -19 5 -12 2 6 2 18 0 25 -3 6 -5 1 -5 -13z"/>
<path d="M1422 2900 c0 -14 2 -19 5 -12 2 6 2 18 0 25 -3 6 -5 1 -5 -13z"/>
<path d="M2871 2904 c0 -11 3 -14 6 -6 3 7 2 16 -1 19 -3 4 -6 -2 -5 -13z"/>
<path d="M1326 2802 c-10 -19 -16 -36 -13 -38 7 -8 39 46 34 59 -2 7 -12 -3
-21 -21z"/>
<path d="M1511 2784 c0 -11 3 -14 6 -6 3 7 2 16 -1 19 -3 4 -6 -2 -5 -13z"/>
<path d="M1370 2769 c0 -5 5 -7 10 -4 6 3 10 8 10 11 0 2 -4 4 -10 4 -5 0 -10
-5 -10 -11z"/>
<path d="M2696 2709 c-11 -11 -17 -21 -14 -24 2 -3 13 4 23 15 24 26 16 33 -9
9z"/>
<path d="M1122 2700 c0 -14 2 -19 5 -12 2 6 2 18 0 25 -3 6 -5 1 -5 -13z"/>
<path d="M1176 2625 c-16 -14 -25 -25 -20 -25 12 0 26 11 43 33 19 24 11 21
-23 -8z"/>
<path d="M2910 2630 c0 -5 5 -10 11 -10 5 0 7 5 4 10 -3 6 -8 10 -11 10 -2 0
-4 -4 -4 -10z"/>
<path d="M2970 2597 c0 -5 8 -22 17 -38 17 -29 33 -38 33 -19 0 6 -4 10 -10
10 -5 0 -16 12 -24 28 -8 15 -15 23 -16 19z"/>
<path d="M1560 2555 c30 -39 40 -48 40 -33 0 7 -13 22 -28 33 -27 19 -27 19
-12 0z"/>
<path d="M1106 2544 c-8 -21 -8 -34 2 -34 4 0 8 11 8 25 2 29 -1 32 -10 9z"/>
<path d="M1601 2490 c0 -8 4 -24 9 -35 5 -13 9 -14 9 -5 0 8 -4 24 -9 35 -5
13 -9 14 -9 5z"/>
<path d="M2513 2410 c0 -36 2 -50 4 -32 2 17 2 47 0 65 -2 17 -4 3 -4 -33z"/>
<path d="M2412 2430 c0 -14 2 -19 5 -12 2 6 2 18 0 25 -3 6 -5 1 -5 -13z"/>
<path d="M3045 2440 c-3 -5 -1 -10 4 -10 6 0 11 5 11 10 0 6 -2 10 -4 10 -3 0
-8 -4 -11 -10z"/>
<path d="M1608 2390 c-3 -19 -9 -46 -13 -60 -3 -15 0 -11 10 10 9 19 14 46 13
60 -3 21 -4 20 -10 -10z"/>
<path d="M3045 2410 c-3 -5 -2 -10 4 -10 5 0 13 5 16 10 3 6 2 10 -4 10 -5 0
-13 -4 -16 -10z"/>
<path d="M3030 2354 c0 -8 5 -12 10 -9 6 4 8 11 5 16 -9 14 -15 11 -15 -7z"/>
<path d="M961 2324 c0 -11 3 -14 6 -6 3 7 2 16 -1 19 -3 4 -6 -2 -5 -13z"/>
<path d="M2540 2291 c0 -6 4 -13 10 -16 6 -3 7 1 4 9 -7 18 -14 21 -14 7z"/>
<path d="M1721 2234 c0 -11 3 -14 6 -6 3 7 2 16 -1 19 -3 4 -6 -2 -5 -13z"/>
<path d="M1085 2230 c-3 -5 -1 -10 4 -10 6 0 11 5 11 10 0 6 -2 10 -4 10 -3 0
-8 -4 -11 -10z"/>
<path d="M1600 2219 c0 -5 5 -7 10 -4 6 3 10 -4 10 -17 0 -18 2 -20 10 -8 5 9
5 19 -2 27 -13 16 -28 17 -28 2z"/>
<path d="M3047 2189 c7 -55 13 -63 13 -18 0 26 3 30 10 19 5 -8 10 -10 10 -5
0 13 -20 43 -20 30 0 -5 -4 -3 -9 4 -6 10 -8 -1 -4 -30z"/>
<path d="M2480 2210 c0 -5 4 -10 9 -10 6 0 13 5 16 10 3 6 -1 10 -9 10 -9 0
-16 -4 -16 -10z"/>
<path d="M1040 2192 c0 -7 0 -15 0 -19 0 -5 3 -8 8 -8 4 0 14 -4 22 -9 9 -6 7
0 -5 15 -11 13 -21 26 -22 28 -2 2 -3 -1 -3 -7z"/>
<path d="M1741 2154 c0 -11 3 -14 6 -6 3 7 2 16 -1 19 -3 4 -6 -2 -5 -13z"/>
<path d="M3182 2150 c0 -14 2 -19 5 -12 2 6 2 18 0 25 -3 6 -5 1 -5 -13z"/>
<path d="M1164 2071 c1 -18 5 -27 14 -24 16 7 15 28 -2 42 -10 9 -13 5 -12
-18z"/>
<path d="M1030 2071 c0 -6 4 -13 10 -16 6 -3 7 1 4 9 -7 18 -14 21 -14 7z"/>
<path d="M1540 2025 c7 -9 15 -13 17 -11 7 7 -7 26 -19 26 -6 0 -6 -6 2 -15z"/>
<path d="M1141 2014 c0 -11 3 -14 6 -6 3 7 2 16 -1 19 -3 4 -6 -2 -5 -13z"/>
<path d="M1062 1980 c0 -14 2 -19 5 -12 2 6 2 18 0 25 -3 6 -5 1 -5 -13z"/>
<path d="M2966 1964 c-3 -9 -2 -22 2 -31 6 -10 9 -5 9 16 0 35 -2 38 -11 15z"/>
<path d="M3095 1970 c-3 -5 -1 -10 4 -10 6 0 11 5 11 10 0 6 -2 10 -4 10 -3 0
-8 -4 -11 -10z"/>
<path d="M1528 1909 c-7 -53 3 -389 12 -389 6 0 10 72 10 180 0 126 -3 180
-11 180 -8 0 -7 5 1 15 9 11 10 19 2 27 -7 7 -11 3 -14 -13z"/>
<path d="M2584 1745 c0 -104 2 -146 3 -92 2 54 2 139 0 190 -1 51 -3 7 -3 -98z"/>
<path d="M2168 1913 c7 -3 16 -2 19 1 4 3 -2 6 -13 5 -11 0 -14 -3 -6 -6z"/>
<path d="M2208 1903 c7 -3 16 -2 19 1 4 3 -2 6 -13 5 -11 0 -14 -3 -6 -6z"/>
<path d="M1877 1860 c3 -11 7 -20 9 -20 2 0 4 9 4 20 0 11 -4 20 -9 20 -5 0
-7 -9 -4 -20z"/>
<path d="M2972 1840 c0 -14 2 -19 5 -12 2 6 2 18 0 25 -3 6 -5 1 -5 -13z"/>
<path d="M1633 1760 c0 -25 2 -35 4 -22 2 12 2 32 0 45 -2 12 -4 2 -4 -23z"/>
<path d="M1800 1655 c-7 -9 -8 -15 -2 -15 5 0 12 7 16 15 3 8 4 15 2 15 -2 0
-9 -7 -16 -15z"/>
<path d="M2983 1600 c0 -25 2 -35 4 -22 2 12 2 32 0 45 -2 12 -4 2 -4 -23z"/>
<path d="M1690 1590 c0 -5 5 -10 11 -10 5 0 7 5 4 10 -3 6 -8 10 -11 10 -2 0
-4 -4 -4 -10z"/>
<path d="M556 1517 c3 -10 9 -15 12 -12 3 3 0 11 -7 18 -10 9 -11 8 -5 -6z"/>
<path d="M2330 1520 c0 -5 5 -10 11 -10 5 0 7 5 4 10 -3 6 -8 10 -11 10 -2 0
-4 -4 -4 -10z"/>
<path d="M2388 1504 c12 -8 20 -20 17 -25 -3 -5 1 -6 10 -3 14 6 14 9 -4 25
-11 11 -26 19 -33 19 -7 0 -2 -7 10 -16z"/>
<path d="M1530 1496 c0 -2 8 -10 18 -17 15 -13 16 -12 3 4 -13 16 -21 21 -21
13z"/>
<path d="M564 1477 c-3 -9 -4 -22 -1 -29 3 -7 6 -2 7 12 l1 25 11 -25 c7 -16
12 -20 15 -12 3 8 -2 21 -10 30 -15 14 -17 14 -23 -1z"/>
<path d="M2510 1419 c0 -5 5 -7 10 -4 6 3 10 8 10 11 0 2 -4 4 -10 4 -5 0 -10
-5 -10 -11z"/>
<path d="M636 1373 c7 -16 14 -33 14 -39 0 -18 27 -37 35 -24 3 5 -1 10 -9 10
-9 0 -15 3 -15 8 3 13 -23 72 -31 72 -5 0 -2 -12 6 -27z"/>
<path d="M3191 1374 c0 -11 3 -14 6 -6 3 7 2 16 -1 19 -3 4 -6 -2 -5 -13z"/>
<path d="M3054 1110 c0 -151 2 -213 3 -137 2 75 2 199 0 275 -1 75 -3 13 -3
-138z"/>
<path d="M1042 1340 c0 -14 2 -19 5 -12 2 6 2 18 0 25 -3 6 -5 1 -5 -13z"/>
<path d="M240 1340 c0 -5 5 -10 11 -10 5 0 7 5 4 10 -3 6 -8 10 -11 10 -2 0
-4 -4 -4 -10z"/>
<path d="M296 1254 c-4 -10 -1 -14 6 -12 15 5 23 28 10 28 -5 0 -13 -7 -16
-16z"/>
<path d="M1044 1120 c0 -69 1 -97 3 -62 2 34 2 90 0 125 -2 34 -3 6 -3 -63z"/>
<path d="M790 1201 c0 -6 4 -13 10 -16 6 -3 7 1 4 9 -7 18 -14 21 -14 7z"/>
<path d="M933 1080 c0 -47 2 -66 4 -42 2 23 2 61 0 85 -2 23 -4 4 -4 -43z"/>
<path d="M813 877 c1 -98 4 -172 7 -165 3 7 3 87 -1 178 l-6 165 0 -178z"/>
<path d="M815 629 c4 -25 3 -30 -4 -19 -8 11 -10 -11 -9 -80 2 -93 2 -93 5
-20 2 41 8 79 13 84 14 14 12 53 -1 62 -8 4 -9 -4 -4 -27z"/>
<path d="M1043 560 c0 -25 2 -35 4 -22 2 12 2 32 0 45 -2 12 -4 2 -4 -23z"/>
<path d="M1 534 c0 -11 3 -14 6 -6 3 7 2 16 -1 19 -3 4 -6 -2 -5 -13z"/>
<path d="M215 496 c0 -19 4 -38 8 -42 4 -4 7 11 7 34 0 23 -3 42 -7 42 -5 0
-8 -15 -8 -34z"/>
<path d="M3053 440 c0 -47 2 -66 4 -42 2 23 2 61 0 85 -2 23 -4 4 -4 -43z"/>
<path d="M56 442 c-4 -7 -11 -10 -16 -7 -13 8 -40 -6 -40 -21 0 -11 20 -14 90
-14 l90 0 0 -57 0 -58 -90 3 c-59 2 -90 0 -90 -7 0 -12 156 -16 184 -5 23 9
23 144 1 144 -8 0 -15 3 -15 8 0 4 -22 7 -50 7 -27 0 -51 4 -53 10 -2 5 -7 4
-11 -3z"/>
<path d="M180 439 c0 -5 5 -7 10 -4 6 3 10 8 10 11 0 2 -4 4 -10 4 -5 0 -10
-5 -10 -11z"/>
<path d="M221 374 c0 -11 3 -14 6 -6 3 7 2 16 -1 19 -3 4 -6 -2 -5 -13z"/>
<path d="M3 345 c0 -22 2 -30 4 -17 2 12 2 30 0 40 -3 9 -5 -1 -4 -23z"/>
<path d="M3047 328 c-3 -12 -2 -29 3 -37 7 -12 9 -6 10 22 0 42 -5 48 -13 15z"/>
<path d="M928 333 c6 -2 18 -2 25 0 6 3 1 5 -13 5 -14 0 -19 -2 -12 -5z"/>
<path d="M231 314 c0 -11 3 -14 6 -6 3 7 2 16 -1 19 -3 4 -6 -2 -5 -13z"/>
<path d="M37 243 c24 -2 62 -2 85 0 24 2 5 4 -42 4 -47 0 -66 -2 -43 -4z"/>
<path d="M908 243 c18 -2 45 -2 60 0 15 2 0 4 -33 4 -33 0 -45 -2 -27 -4z"/>
<path d="M3148 243 c17 -2 47 -2 65 0 17 2 3 4 -33 4 -36 0 -50 -2 -32 -4z"/>
<path d="M818 73 c448 -2 1177 -2 1620 0 444 1 78 2 -813 2 -891 0 -1254 -1
-807 -2z"/>
<path d="M0 35 c0 -13 201 -15 1620 -15 1434 0 1620 2 1620 15 0 13 -186 15
-1620 15 -1419 -1 -1620 -2 -1620 -15z"/>
</g>
</svg>
