<?xml version="1.0" standalone="no"?>
<!DOCTYPE svg PUBLIC "-//W3C//DTD SVG 20010904//EN"
 "http://www.w3.org/TR/2001/REC-SVG-20010904/DTD/svg10.dtd">
<svg version="1.0" xmlns="http://www.w3.org/2000/svg"
 width="540.000000pt" height="282.000000pt" viewBox="0 0 540.000000 282.000000"
 preserveAspectRatio="xMidYMid meet">
<g transform="translate(0.000000,282.000000) scale(0.100000,-0.100000)"
fill="#000000" stroke="none">
<path d="M2056 2155 c-9 -13 -16 -26 -16 -29 0 -2 -33 -53 -72 -114 -117 -178
-210 -322 -253 -393 -22 -36 -48 -74 -57 -83 -31 -31 -17 -76 25 -76 16 0 18
-7 14 -65 -3 -49 -1 -65 9 -65 8 0 20 -13 29 -30 12 -24 15 -80 15 -332 l0
-303 -767 3 -767 3 -18 -23 c-15 -20 -18 -46 -18 -180 l0 -158 -34 0 c-19 0
-37 6 -39 13 -3 6 -5 -64 -6 -158 0 -111 3 -162 9 -147 l9 22 2641 0 c2340 0
2640 2 2640 15 0 13 -300 15 -2640 15 -1753 0 -2640 3 -2640 10 0 6 8 10 18
10 11 0 13 3 5 8 -7 4 -13 43 -15 100 -3 89 -2 92 19 92 53 0 53 1 53 170 0
88 3 161 8 163 4 3 6 -69 5 -158 -2 -91 2 -167 7 -170 11 -7 370 -12 370 -5 0
3 88 4 196 2 132 -2 200 0 209 8 8 7 14 7 17 1 2 -7 74 -11 190 -11 133 -1
188 -5 192 -13 2 -7 5 -2 5 11 1 29 21 19 22 -11 1 -17 2 -18 6 -4 4 15 21 17
171 17 l167 0 0 65 c0 75 21 92 28 23 l4 -43 1 42 c2 41 0 43 -41 62 -37 17
-65 20 -190 20 -125 0 -147 -2 -147 -15 0 -9 -6 -14 -12 -12 -15 5 -22 42 -14
64 5 14 8 14 22 0 13 -13 42 -16 168 -16 105 0 156 -4 164 -12 9 -9 12 -9 12
0 0 7 -6 12 -12 12 -8 1 -5 7 6 15 15 11 18 23 14 60 -3 27 -1 45 4 45 6 0 5
7 -2 15 -10 12 -43 15 -181 15 -149 0 -169 -2 -178 -17 -10 -17 -10 -17 -11
-1 0 16 -37 17 -585 15 -322 -1 -585 1 -585 6 0 4 344 7 765 7 487 0 765 4
765 10 0 5 8 7 18 4 12 -4 13 -3 4 3 -10 8 -13 79 -13 323 0 211 -3 318 -10
327 -6 7 -9 19 -6 27 4 10 1 13 -7 10 -9 -3 -12 7 -11 38 2 54 -21 108 -46
108 -21 0 -22 4 -10 35 8 19 8 19 15 -2 4 -13 11 -23 16 -23 5 0 7 6 4 14 -3
8 -1 17 5 21 6 3 11 12 11 18 0 7 -4 6 -10 -3 -5 -8 -12 -11 -16 -7 -4 4 0 15
8 24 9 10 24 34 33 53 10 19 22 38 27 41 10 6 22 26 53 87 10 17 21 32 26 32
5 0 9 4 9 10 0 15 62 114 77 123 7 5 11 12 8 18 -4 5 -1 9 4 9 6 0 11 7 11 15
0 18 16 20 24 3 3 -7 3 -3 0 10 -6 23 11 31 19 10 3 -8 6 -7 6 4 1 9 -4 20 -9
23 -16 10 -1 25 17 18 11 -4 14 -3 9 5 -11 18 9 45 34 47 16 1 20 -3 17 -17
-3 -10 -1 -15 5 -12 5 3 7 17 4 30 -4 14 -2 24 4 24 5 0 10 -8 10 -17 0 -10 5
-25 11 -33 8 -11 9 -7 4 18 -4 20 -3 32 4 32 6 0 11 -6 11 -14 0 -8 12 -28 26
-45 23 -28 25 -35 15 -63 -13 -38 -14 -48 -1 -28 5 8 10 10 10 3 0 -6 14 -16
31 -22 17 -6 33 -20 36 -31 3 -11 9 -20 14 -20 5 0 6 -13 3 -28 -4 -20 0 -35
16 -52 l22 -25 -16 27 c-18 31 -20 48 -6 48 6 0 10 -7 10 -15 0 -8 5 -15 10
-15 6 0 10 -6 10 -14 0 -8 7 -16 15 -20 8 -3 15 -1 15 5 0 9 -28 58 -40 69 -3
3 -14 22 -25 43 -11 20 -23 37 -27 37 -5 0 -8 7 -8 15 0 8 -4 15 -9 15 -5 0
-11 8 -15 18 -7 22 -46 85 -56 92 -4 3 -14 19 -23 37 -18 34 -44 63 -57 63 -4
0 -15 -11 -24 -25z m28 -20 c-4 -9 0 -15 10 -15 9 0 16 -4 16 -9 0 -5 -9 -7
-20 -4 -20 5 -26 23 -13 36 10 11 13 8 7 -8z m-14 -45 c0 -5 -4 -10 -10 -10
-5 0 -10 5 -10 10 0 6 5 10 10 10 6 0 10 -4 10 -10z m140 -137 c0 -13 -3 -13
-15 -3 -8 7 -15 19 -15 27 0 13 3 13 15 3 8 -7 15 -19 15 -27z m-1624 -1400
l0 -53 -178 0 -178 0 0 48 c0 27 2 51 4 53 2 2 82 4 178 4 l173 0 1 -52z m401
-5 l4 -48 -186 0 -185 0 0 53 0 52 181 -5 181 -5 5 -47z m393 7 l0 -55 -181 0
-180 1 3 47 3 47 170 5 c94 3 173 7 178 8 4 1 7 -23 7 -53z m369 -2 l2 -52
-161 0 -160 -1 0 52 0 53 158 0 159 0 2 -52z m-728 -78 c6 5 229 8 347 5 8 0
12 -5 10 -10 -2 -7 -66 -11 -178 -11 -144 -1 -178 -3 -192 -16 -16 -14 -18
-14 -24 1 -6 15 -27 17 -184 16 -144 -1 -180 -4 -184 -16 -7 -18 -26 -18 -26
1 0 12 -28 14 -180 12 -147 -2 -180 1 -178 11 2 11 39 14 180 13 136 -1 177 1
180 11 4 10 8 10 19 1 9 -7 74 -12 195 -13 165 -1 182 1 190 17 7 16 8 15 11
-5 3 -12 9 -20 14 -17z m-435 -107 l-1 -53 -178 -3 -177 -2 0 55 0 55 179 0
179 0 -2 -52z m399 0 l-2 -53 -181 -3 -182 -2 0 55 0 55 184 0 183 0 -2 -52z
m395 -3 l0 -55 -177 2 -178 3 -2 53 -1 52 179 0 179 0 0 -55z m369 0 l0 -55
-160 0 -159 0 0 55 0 55 159 0 160 0 0 -55z"/>
<path d="M1680 359 c0 -5 5 -7 10 -4 6 3 10 8 10 11 0 2 -4 4 -10 4 -5 0 -10
-5 -10 -11z"/>
<path d="M1945 2090 c3 -5 8 -10 11 -10 2 0 4 5 4 10 0 6 -5 10 -11 10 -5 0
-7 -4 -4 -10z"/>
<path d="M2155 2010 c3 -5 8 -10 11 -10 2 0 4 5 4 10 0 6 -5 10 -11 10 -5 0
-7 -4 -4 -10z"/>
<path d="M1920 1880 c0 -6 7 -10 15 -10 8 0 15 2 15 4 0 2 -7 6 -15 10 -8 3
-15 1 -15 -4z"/>
<path d="M1761 1845 c1 -19 18 -51 18 -35 0 8 -4 22 -9 30 -5 8 -9 11 -9 5z"/>
<path d="M1801 1824 c0 -11 3 -14 6 -6 3 7 2 16 -1 19 -3 4 -6 -2 -5 -13z"/>
<path d="M1901 1828 c-1 -10 -5 -18 -11 -18 -5 0 -10 -5 -10 -12 0 -8 6 -7 16
4 9 9 14 22 11 30 -4 9 -6 7 -6 -4z"/>
<path d="M2380 1818 c0 -9 5 -20 10 -23 13 -8 13 5 0 25 -8 13 -10 13 -10 -2z"/>
<path d="M2315 1770 c3 -5 8 -10 11 -10 2 0 4 5 4 10 0 6 -5 10 -11 10 -5 0
-7 -4 -4 -10z"/>
<path d="M2337 1758 c-2 -13 -7 -30 -9 -38 -3 -8 -3 -12 -1 -8 5 8 10 4 55
-35 20 -17 27 -32 25 -53 -2 -22 2 -29 16 -29 24 0 43 -33 28 -48 -6 -6 -11
-15 -11 -20 0 -5 8 -1 17 8 15 16 17 15 30 -10 15 -28 9 -50 -7 -25 -8 13 -10
12 -10 -3 0 -10 -11 -22 -25 -27 -14 -5 -25 -15 -24 -22 0 -10 2 -10 6 0 11
27 20 9 22 -40 0 -39 -4 -57 -19 -73 -20 -21 -20 -33 -18 -353 2 -215 -1 -334
-7 -336 -5 -3 484 -5 1089 -5 703 0 1105 3 1117 10 14 7 17 16 12 41 -3 18 -2
29 3 26 10 -6 9 280 -1 290 -3 3 -5 -61 -5 -141 0 -204 -18 -189 -24 21 -3 92
-7 199 -9 237 -3 59 -1 73 16 93 24 26 42 29 33 5 -6 -16 -6 -16 12 0 10 9 23
17 29 17 11 0 53 43 53 55 0 4 -8 -1 -17 -12 -21 -23 -62 -47 -70 -39 -3 3 9
14 27 24 18 11 40 34 51 51 10 17 23 31 29 31 5 0 10 7 10 16 0 10 6 14 15 11
8 -4 17 -1 21 5 4 7 3 8 -4 4 -7 -4 -12 -1 -12 8 0 10 6 13 15 10 10 -4 15 0
15 11 0 9 -5 13 -10 10 -6 -4 -1 14 12 39 17 35 25 43 35 34 7 -6 13 -17 13
-26 0 -8 3 -12 7 -9 3 4 0 18 -7 32 -12 23 -11 32 15 86 27 56 55 93 55 72 0
-5 -15 -35 -34 -66 -19 -31 -33 -57 -31 -57 11 0 55 57 55 71 0 9 7 19 15 23
8 3 14 2 13 -2 -1 -4 6 -22 15 -40 13 -24 15 -37 7 -51 -5 -11 -10 -28 -9 -38
1 -13 3 -12 7 5 9 30 24 31 39 1 8 -15 9 -27 2 -35 -7 -8 -5 -11 8 -10 15 1
18 -6 16 -34 -3 -35 20 -80 34 -66 4 4 2 10 -4 14 -6 4 -14 21 -17 37 -3 17
-3 23 0 15 4 -8 15 -27 25 -41 14 -19 15 -29 7 -37 -14 -14 -5 -25 24 -27 12
-1 24 -7 26 -15 3 -8 0 -10 -8 -5 -23 14 8 -32 41 -59 21 -18 38 -24 53 -20
13 3 27 0 33 -8 14 -17 19 -100 8 -118 -6 -8 -10 -90 -10 -182 0 -107 -4 -167
-10 -165 -6 1 -10 63 -11 157 0 85 -2 162 -2 170 -4 31 -22 -14 -20 -50 l1
-35 7 40 c7 42 3 -213 -5 -275 -3 -21 -1 -30 4 -22 7 11 10 10 15 -3 9 -24 7
-37 -4 -30 -5 3 -10 3 -10 -2 0 -12 16 -35 26 -36 5 -1 9 -79 10 -174 1 -94 3
-177 6 -185 7 -17 148 -12 148 6 0 8 -20 11 -67 8 l-68 -4 3 178 c3 154 2 180
-12 190 -15 11 -13 44 3 44 3 0 5 72 5 161 -1 106 2 164 10 172 6 7 11 46 11
88 l1 76 -43 28 c-66 42 -142 123 -172 185 -29 59 -53 102 -61 110 -10 10 -58
105 -65 130 -18 59 -26 52 -90 -73 -85 -166 -108 -210 -120 -225 -22 -29 -99
-98 -142 -129 -58 -41 -57 -39 -47 -55 5 -7 9 -42 10 -76 0 -39 6 -67 13 -71
9 -6 12 -50 10 -166 -1 -125 1 -159 12 -166 12 -7 12 -11 -2 -24 -14 -14 -128
-16 -1087 -18 l-1072 -2 0 318 c0 305 1 318 20 334 16 14 20 30 20 80 0 54 3
63 18 63 20 0 42 18 42 35 0 6 -15 33 -32 61 -18 28 -58 90 -88 137 -30 48
-58 87 -61 87 -4 0 -9 -10 -12 -22z m27 -34 c9 -24 7 -28 -9 -14 -17 14 -20
30 -6 30 5 0 12 -7 15 -16z m66 -104 c0 -5 -4 -10 -10 -10 -5 0 -10 5 -10 10
0 6 5 10 10 10 6 0 10 -4 10 -10z m2680 -290 c0 -5 -4 -10 -10 -10 -5 0 -10 5
-10 10 0 6 5 10 10 10 6 0 10 -4 10 -10z m71 -71 c17 -17 28 -33 25 -36 -7 -7
-66 46 -66 59 0 14 8 9 41 -23z"/>
<path d="M1801 1666 c-7 -8 -8 -17 -3 -20 6 -3 13 1 16 10 9 23 2 28 -13 10z"/>
<path d="M1770 1636 c0 -8 -6 -16 -12 -19 -7 -2 -10 -7 -7 -11 3 -3 14 2 23
13 11 12 14 21 7 26 -6 3 -11 0 -11 -9z"/>
<path d="M5017 1631 c-4 -17 -3 -21 5 -13 5 5 8 16 6 23 -3 8 -7 3 -11 -10z"/>
<path d="M2520 1609 c0 -5 5 -7 10 -4 6 3 10 8 10 11 0 2 -4 4 -10 4 -5 0 -10
-5 -10 -11z"/>
<path d="M4811 1604 c0 -11 3 -14 6 -6 3 7 2 16 -1 19 -3 4 -6 -2 -5 -13z"/>
<path d="M2431 1564 c0 -11 3 -14 6 -6 3 7 2 16 -1 19 -3 4 -6 -2 -5 -13z"/>
<path d="M1595 1551 c-3 -5 -1 -12 5 -16 5 -3 10 1 10 9 0 18 -6 21 -15 7z"/>
<path d="M4951 1544 c0 -11 3 -14 6 -6 3 7 2 16 -1 19 -3 4 -6 -2 -5 -13z"/>
<path d="M4985 1497 c-4 -10 -5 -21 -1 -24 10 -10 18 4 13 24 -4 17 -4 17 -12
0z"/>
<path d="M5111 1484 c0 -11 3 -14 6 -6 3 7 2 16 -1 19 -3 4 -6 -2 -5 -13z"/>
<path d="M4835 1470 c-3 -5 -1 -10 4 -10 6 0 11 5 11 10 0 6 -2 10 -4 10 -3 0
-8 -4 -11 -10z"/>
<path d="M2413 1402 c-7 -18 -8 -30 -3 -27 13 8 13 -1 0 -25 -8 -16 -7 -18 4
-14 18 7 24 31 16 69 l-6 30 -11 -33z"/>
<path d="M2538 1403 c7 -3 16 -2 19 1 4 3 -2 6 -13 5 -11 0 -14 -3 -6 -6z"/>
<path d="M2541 1314 c0 -11 3 -14 6 -6 3 7 2 16 -1 19 -3 4 -6 -2 -5 -13z"/>
<path d="M1794 985 c0 -176 2 -247 3 -157 2 90 2 234 0 320 -1 86 -3 13 -3
-163z"/>
<path d="M4538 1283 c7 -3 16 -2 19 1 4 3 -2 6 -13 5 -11 0 -14 -3 -6 -6z"/>
<path d="M5275 1260 c-3 -6 1 -7 9 -4 18 7 21 14 7 14 -6 0 -13 -4 -16 -10z"/>
<path d="M4600 1191 c0 -6 5 -13 10 -16 6 -3 10 1 10 9 0 9 -4 16 -10 16 -5 0
-10 -4 -10 -9z"/>
<path d="M5225 1151 c0 -27 3 -52 7 -56 3 -3 6 19 7 49 0 31 -3 56 -7 56 -4 0
-7 -22 -7 -49z"/>
<path d="M4607 1153 c-9 -9 -9 -85 1 -100 4 -6 7 15 7 48 0 32 0 59 -1 59 0 0
-4 -3 -7 -7z"/>
<path d="M4481 1124 c0 -11 3 -14 6 -6 3 7 2 16 -1 19 -3 4 -6 -2 -5 -13z"/>
<path d="M4631 1034 c0 -11 3 -14 6 -6 3 7 2 16 -1 19 -3 4 -6 -2 -5 -13z"/>
<path d="M5201 654 c0 -11 3 -14 6 -6 3 7 2 16 -1 19 -3 4 -6 -2 -5 -13z"/>
<path d="M2415 618 c-2 -7 -6 -38 -8 -69 l-4 -57 36 -6 c20 -3 98 -6 173 -6
99 0 138 -3 142 -12 4 -9 5 -8 5 2 -3 37 0 42 16 27 12 -12 50 -16 195 -17
118 0 180 3 180 10 0 5 7 10 15 10 9 0 12 -6 8 -17 -4 -11 -3 -14 6 -9 6 4 92
7 191 6 170 -1 179 0 193 20 14 20 15 20 20 1 4 -18 15 -19 182 -21 173 -1
177 0 197 22 18 21 20 22 16 3 -3 -19 3 -20 186 -23 142 -2 191 0 197 9 5 9
11 10 21 2 7 -6 53 -11 103 -12 55 -2 92 -7 97 -14 4 -6 10 -8 15 -4 4 5 1 13
-7 18 -11 8 -12 12 -2 16 16 6 16 107 -1 121 -8 7 -116 11 -309 11 -272 1
-298 -1 -307 -17 -10 -16 -10 -16 -11 0 0 16 -39 17 -595 17 -444 0 -595 -3
-595 -11 0 -9 -3 -9 -12 0 -17 17 -337 17 -343 0z m325 -23 c6 -3 10 -26 10
-51 l0 -45 -160 2 -160 1 0 51 0 52 150 -2 c83 -1 155 -5 160 -8z m398 -45 l3
-50 -180 0 -181 1 0 43 c0 23 4 46 9 52 6 5 82 8 178 7 l168 -2 3 -51z m402 2
l0 -53 -175 2 -175 3 0 50 0 51 175 0 175 0 0 -53z m33 38 c3 -11 1 -20 -4
-20 -5 0 -9 9 -9 20 0 11 2 20 4 20 2 0 6 -9 9 -20z m369 5 c4 -5 8 -29 8 -52
l0 -43 -180 0 -180 0 0 53 0 52 172 0 c104 0 176 -4 180 -10z m394 1 c6 -2 11
-25 12 -50 l2 -46 -177 2 -178 3 2 45 c1 25 2 47 2 50 1 6 320 1 337 -4z m244
-47 l0 -49 -89 4 c-106 4 -114 8 -100 43 7 19 6 28 -3 34 -10 6 -9 9 2 13 18
7 160 12 178 7 7 -2 12 -21 12 -52z"/>
<path d="M1793 540 c0 -25 2 -35 4 -22 2 12 2 32 0 45 -2 12 -4 2 -4 -23z"/>
<path d="M4617 574 c-4 -4 -7 -14 -7 -23 0 -11 3 -12 11 -4 6 6 10 16 7 23 -2
6 -7 8 -11 4z"/>
<path d="M2418 447 c-11 -9 -15 -25 -13 -52 1 -22 -3 -46 -9 -54 -9 -12 -8
-13 3 -6 11 6 13 3 9 -13 -4 -12 -5 -23 -5 -24 1 -1 79 -4 172 -7 144 -5 172
-4 182 9 11 13 12 13 13 0 0 -13 27 -14 202 -10 112 3 207 3 211 2 4 -2 89 -3
188 -2 144 1 180 -2 176 -12 -2 -7 -13 -12 -23 -10 -15 2 -16 1 -5 -7 19 -12
39 -4 47 21 3 11 12 17 19 14 8 -3 94 -6 192 -7 119 -1 181 -5 186 -13 5 -6 5
0 2 14 -6 20 -5 23 6 12 17 -16 374 -17 385 -1 5 8 9 7 14 -1 11 -17 204 -16
222 1 8 7 12 31 10 65 -3 46 -2 53 12 48 17 -7 22 -44 6 -44 -5 0 -10 -4 -10
-10 0 -5 7 -7 16 -3 25 9 13 52 -21 71 -16 9 -33 21 -36 25 -3 4 -46 7 -95 5
-75 -3 -89 -6 -92 -20 -3 -16 7 -18 97 -18 l101 0 0 -55 0 -55 -90 0 c-87 0
-91 1 -102 26 -10 21 -9 27 3 35 9 6 10 12 4 17 -5 4 -17 21 -25 37 l-16 30
-169 3 c-109 2 -179 -2 -197 -9 -15 -6 -32 -7 -39 -3 -7 4 -91 8 -186 9 -135
0 -173 -2 -173 -12 0 -17 -11 -16 -35 1 -15 10 -61 13 -196 11 -97 -1 -182 -6
-188 -10 -7 -3 -18 -2 -25 4 -8 7 -77 10 -190 9 -141 -1 -176 -4 -172 -15 3
-8 -2 -13 -15 -13 -11 0 -22 7 -25 15 -5 12 -32 15 -158 15 -106 -1 -156 -4
-168 -13z m329 -79 l-2 -53 -157 -3 -158 -3 0 56 0 55 159 0 159 0 -1 -52z
m393 -3 l0 -55 -177 2 -178 3 -1 53 -2 52 179 0 179 0 0 -55z m400 0 l0 -55
-177 0 -178 0 3 55 4 55 174 0 174 0 0 -55z m40 51 c0 -3 -4 -8 -10 -11 -5 -3
-10 -1 -10 4 0 6 5 11 10 11 6 0 10 -2 10 -4z m368 -51 l-1 -55 -176 2 -176 3
-3 53 -3 52 180 0 180 0 -1 -55z m402 0 l0 -55 -177 2 -178 3 -1 53 -1 52 179
0 178 0 0 -55z m-783 -47 c-3 -7 -5 -2 -5 12 0 14 2 19 5 13 2 -7 2 -19 0 -25z"/>
<path d="M4178 383 c12 -2 32 -2 45 0 12 2 2 4 -23 4 -25 0 -35 -2 -22 -4z"/>
<path d="M5212 330 c0 -14 2 -19 5 -12 2 6 2 18 0 25 -3 6 -5 1 -5 -13z"/>
<path d="M190 275 c-7 -9 -8 -15 -2 -15 5 0 12 7 16 15 3 8 4 15 2 15 -2 0 -9
-7 -16 -15z"/>
<path d="M480 270 c0 -5 -24 -11 -52 -12 -40 -1 -44 -2 -19 -5 43 -6 101 5
101 17 0 6 -7 10 -15 10 -8 0 -15 -4 -15 -10z"/>
<path d="M680 269 c-19 -4 42 -6 135 -6 168 1 164 4 -10 9 -50 2 -106 0 -125
-3z"/>
<path d="M1055 270 c-3 -5 1 -10 10 -10 9 0 13 5 10 10 -3 6 -8 10 -10 10 -2
0 -7 -4 -10 -10z"/>
<path d="M1095 270 c-3 -5 -2 -10 4 -10 5 0 13 5 16 10 3 6 2 10 -4 10 -5 0
-13 -4 -16 -10z"/>
<path d="M1280 270 c0 -5 12 -10 28 -9 24 0 25 1 7 9 -27 12 -35 12 -35 0z"/>
<path d="M1455 270 c-3 -5 1 -10 10 -10 9 0 13 5 10 10 -3 6 -8 10 -10 10 -2
0 -7 -4 -10 -10z"/>
<path d="M1726 271 c-4 -5 3 -7 14 -4 23 6 26 13 6 13 -8 0 -17 -4 -20 -9z"/>
<path d="M2408 273 c6 -2 18 -2 25 0 6 3 1 5 -13 5 -14 0 -19 -2 -12 -5z"/>
<path d="M2805 270 c-3 -5 1 -10 9 -10 9 0 16 5 16 10 0 6 -4 10 -9 10 -6 0
-13 -4 -16 -10z"/>
<path d="M2860 268 c0 -5 59 -8 130 -8 72 0 130 3 130 8 0 4 -59 7 -130 7 -72
0 -130 -3 -130 -7z"/>
<path d="M3232 270 c2 -8 12 -15 21 -14 10 0 70 2 135 4 l117 4 -115 5 c-67 4
-118 2 -122 -3 -4 -6 -14 -4 -24 5 -15 12 -17 12 -12 -1z"/>
<path d="M3670 270 c0 -6 -11 -8 -27 -5 -23 4 -25 4 -8 -4 24 -12 334 -13 315
-1 -7 4 -69 9 -138 9 -69 1 -129 4 -134 7 -4 3 -8 0 -8 -6z"/>
<path d="M4005 270 c-19 -8 -19 -9 3 -9 12 -1 22 4 22 9 0 6 -1 10 -2 9 -2 0
-12 -4 -23 -9z"/>
<path d="M5305 270 c-27 -5 -25 -7 19 -13 27 -4 52 -5 54 -2 3 3 -4 5 -15 5
-12 0 -23 4 -25 8 -1 4 -16 5 -33 2z"/>
<path d="M5368 273 c6 -2 18 -2 25 0 6 3 1 5 -13 5 -14 0 -19 -2 -12 -5z"/>
<path d="M148 263 c7 -3 16 -2 19 1 4 3 -2 6 -13 5 -11 0 -14 -3 -6 -6z"/>
<path d="M2498 263 c29 -2 74 -2 100 0 26 2 2 3 -53 3 -55 0 -76 -1 -47 -3z"/>
<path d="M4142 263 c37 -2 100 -2 140 0 40 1 10 3 -67 3 -77 0 -110 -1 -73 -3z"/>
<path d="M4408 263 c7 -3 16 -2 19 1 4 3 -2 6 -13 5 -11 0 -14 -3 -6 -6z"/>
<path d="M4493 263 c9 -2 25 -2 35 0 9 3 1 5 -18 5 -19 0 -27 -2 -17 -5z"/>
<path d="M538 253 c7 -3 16 -2 19 1 4 3 -2 6 -13 5 -11 0 -14 -3 -6 -6z"/>
<path d="M1468 83 c721 -2 1903 -2 2625 0 721 1 131 2 -1313 2 -1444 0 -2034
-1 -1312 -2z"/>
</g>
</svg>
