<?xml version="1.0" standalone="no"?>
<!DOCTYPE svg PUBLIC "-//W3C//DTD SVG 20010904//EN"
 "http://www.w3.org/TR/2001/REC-SVG-20010904/DTD/svg10.dtd">
<svg version="1.0" xmlns="http://www.w3.org/2000/svg"
 width="106.000000pt" height="338.000000pt" viewBox="0 0 106.000000 338.000000"
 preserveAspectRatio="xMidYMid meet">
<g transform="translate(0.000000,338.000000) scale(0.100000,-0.100000)"
fill="#000000" stroke="none">
<path d="M83 3170 c-21 -33 -15 -58 22 -96 19 -19 35 -46 35 -58 0 -12 4 -26
9 -31 6 -6 11 -59 14 -120 2 -60 6 -119 9 -130 6 -20 24 -88 35 -133 3 -12 9
-25 14 -28 5 -3 9 -14 9 -25 0 -10 4 -19 9 -19 5 0 12 -15 16 -32 12 -60 34
-93 95 -138 60 -46 83 -90 64 -122 -5 -7 -9 -17 -10 -23 0 -5 -2 -16 -2 -22
-3 -20 -26 -15 -40 7 -21 34 -94 25 -141 -19 -18 -17 -20 -123 -2 -129 13 -4
15 -54 2 -67 -4 -6 -11 -31 -14 -57 -6 -43 -4 -51 23 -78 17 -17 30 -37 30
-45 0 -8 14 -41 30 -73 35 -70 37 -99 9 -148 -17 -31 -20 -49 -16 -108 3 -39
11 -98 17 -131 17 -88 23 -187 13 -194 -20 -13 -63 -87 -63 -108 0 -12 -5 -25
-10 -28 -6 -3 -10 -23 -10 -44 0 -20 -4 -41 -9 -47 -5 -5 -11 -31 -14 -59 -9
-80 -18 -116 -33 -122 -10 -4 -14 -25 -14 -75 l0 -69 -71 2 -71 2 2 -175 c1
-136 -2 -177 -12 -181 -7 -2 -10 -7 -7 -11 3 -3 14 -4 23 0 14 5 16 28 16 178
1 152 2 169 15 152 12 -15 15 -16 15 -5 0 12 12 16 45 17 70 3 80 14 79 83 -1
33 2 62 7 65 5 3 9 16 9 29 0 13 4 27 10 30 6 4 10 -7 10 -27 0 -22 3 -29 9
-19 6 9 11 10 15 2 4 -6 18 -8 32 -5 14 4 24 2 24 -4 0 -17 75 -25 243 -26
145 -1 157 0 157 17 0 10 4 15 10 12 5 -3 7 0 4 9 -11 28 6 37 28 16 12 -11
30 -20 41 -20 17 0 18 -7 15 -75 -4 -86 2 -92 87 -92 l50 0 3 -164 c2 -115 6
-165 15 -171 18 -11 97 -10 97 2 0 6 -18 10 -41 10 l-40 0 3 175 3 175 -77 0
-78 0 6 68 c5 57 3 71 -11 86 -10 9 -24 15 -31 12 -8 -3 -14 -1 -14 4 0 6 -6
10 -14 10 -19 0 -29 61 -16 94 12 33 13 130 1 154 -24 48 -30 73 -35 147 -2
44 -7 91 -10 105 -3 14 -9 46 -12 73 -4 26 -11 47 -15 47 -5 0 -9 7 -9 15 0 8
-4 15 -10 15 -5 0 -10 7 -10 15 0 8 -3 15 -7 15 -5 0 -21 20 -38 45 -16 24
-33 45 -37 45 -12 0 -9 40 2 40 6 0 10 18 10 40 0 22 5 40 10 40 6 0 10 7 10
16 0 20 15 34 63 59 43 22 77 77 77 125 0 28 -3 31 -22 25 -13 -4 -27 -11 -32
-16 -6 -5 -20 -9 -33 -9 -13 0 -23 -4 -23 -10 0 -5 -9 -10 -19 -10 -11 0 -22
-4 -25 -9 -13 -20 -153 -36 -182 -20 -12 6 -31 9 -41 5 -16 -7 -16 -9 7 -26
14 -11 27 -15 28 -10 5 13 93 13 126 0 20 -7 26 -6 26 4 0 17 27 29 35 16 4
-6 14 -10 23 -9 11 0 12 3 5 6 -18 7 -16 23 2 23 8 0 15 -5 15 -11 0 -5 5 -7
10 -4 15 10 12 -11 -4 -25 -8 -6 -12 -18 -9 -26 5 -14 -12 -20 -20 -6 -2 4 -3
2 -2 -3 4 -15 -18 -32 -35 -27 -13 3 -13 2 0 -7 12 -9 13 -14 3 -31 -7 -11
-13 -33 -13 -50 0 -16 -5 -30 -11 -30 -8 0 -10 14 -6 42 4 27 2 37 -4 27 -14
-23 -11 -113 6 -135 19 -25 19 -34 -2 -34 -15 0 -16 -2 -3 -10 10 -6 16 -6 18
0 4 12 23 14 20 2 -2 -4 9 -21 24 -37 16 -17 26 -37 23 -46 -7 -20 4 -49 17
-49 6 0 5 6 -2 15 -6 8 -10 20 -8 27 9 25 32 -38 43 -117 11 -76 12 -130 2
-185 -2 -14 -2 -17 0 -8 7 30 23 20 23 -13 0 -25 -3 -30 -16 -25 -14 6 -15 4
-4 -10 11 -13 11 -17 1 -24 -8 -4 -10 -13 -7 -19 11 -17 26 -3 26 25 0 13 5
24 10 24 6 0 10 -16 10 -35 0 -47 0 -48 11 -61 10 -13 1 -47 -11 -39 -4 2 -6
-19 -4 -48 2 -29 1 -43 -2 -32 -3 11 -10 24 -15 29 -5 6 -9 23 -9 38 0 15 -4
28 -10 28 -5 0 -10 9 -10 19 0 11 -4 23 -10 26 -5 3 -8 43 -7 90 3 66 0 86
-11 90 -12 4 -12 8 -2 20 11 13 10 14 -4 9 -11 -4 -16 -1 -16 11 0 9 4 13 10
10 6 -4 7 1 3 11 -4 11 -8 13 -11 6 -2 -7 -8 -12 -14 -12 -5 0 -7 9 -3 20 5
15 3 18 -9 14 -11 -4 -16 -1 -16 10 0 9 -7 19 -16 23 -8 3 -13 12 -10 19 3 8
0 11 -11 7 -8 -3 -18 -1 -22 6 -5 7 -23 9 -54 5 -36 -5 -47 -11 -47 -25 0 -10
-4 -20 -9 -23 -4 -3 -11 -26 -14 -52 -8 -70 -26 -79 -24 -11 1 31 -3 61 -9 67
-7 7 -10 -9 -10 -57 1 -38 5 -71 10 -74 5 -4 5 -12 1 -19 -6 -9 -10 -9 -17 1
-7 10 -8 8 -3 -8 3 -12 1 -24 -5 -28 -5 -3 -10 -15 -10 -26 0 -10 -4 -19 -10
-19 -13 0 -13 27 0 35 6 4 8 15 5 25 -3 10 -1 21 5 25 13 8 14 205 0 205 -6 0
-9 20 -8 45 0 25 -4 51 -10 57 -15 15 -16 94 -2 103 5 3 10 15 10 26 0 10 5
19 10 19 6 0 10 24 10 54 0 30 -4 58 -10 61 -5 3 -10 15 -10 26 0 10 -4 19 -8
19 -4 0 -13 14 -20 32 -9 23 -9 35 0 45 8 10 8 17 -1 26 -10 9 -11 8 -5 -8 7
-17 6 -18 -8 -7 -10 8 -16 31 -17 69 -1 68 -11 85 -11 20 0 -28 -5 -47 -11
-47 -7 0 -9 15 -5 45 3 25 9 65 12 90 3 25 9 45 13 45 3 0 6 11 6 24 0 13 -3
22 -8 19 -4 -2 -7 -11 -7 -19 0 -8 -4 -14 -10 -14 -5 0 -10 20 -10 44 0 67 9
71 155 63 22 -2 30 3 33 18 3 11 8 22 12 25 4 3 9 24 12 46 5 33 2 44 -13 55
-18 13 -18 14 -2 21 14 5 13 7 -7 7 -14 1 -37 12 -52 26 -15 14 -32 25 -38 25
-6 0 -8 11 -5 28 4 22 4 23 -4 7 l-9 -20 -7 20 c-7 21 -18 49 -40 100 -14 33
-27 66 -43 107 -13 33 -27 139 -25 193 1 22 -2 64 -8 93 -11 57 -4 121 13 104
6 -6 6 -17 -1 -31 -8 -14 -8 -21 -1 -21 5 0 10 -15 10 -33 0 -18 4 -37 9 -42
8 -9 14 -42 23 -117 1 -10 6 -18 10 -18 4 0 8 -24 8 -52 0 -38 -3 -49 -10 -38
-5 8 -10 30 -10 48 0 22 -5 32 -15 32 -18 0 -18 2 -1 -46 7 -22 11 -44 9 -51
-2 -6 1 -14 6 -18 6 -3 11 0 11 7 1 8 7 5 17 -7 15 -19 15 -19 10 10 l-6 30
12 -26 c7 -14 20 -34 31 -44 13 -14 15 -20 6 -23 -7 -3 -17 2 -22 9 -5 8 -8 9
-6 3 4 -15 87 -84 100 -84 5 0 3 7 -6 15 -8 8 -19 15 -24 15 -14 0 -36 29 -28
37 4 4 10 3 14 -3 4 -5 22 -20 40 -33 28 -20 31 -25 20 -39 -10 -12 -10 -14 0
-8 8 5 12 0 12 -14 0 -12 4 -18 10 -15 6 3 10 -1 10 -9 0 -9 7 -16 16 -16 14
0 14 1 0 16 -28 28 -17 36 17 11 39 -29 67 -40 67 -26 0 6 7 17 15 25 8 9 15
33 15 54 0 21 8 62 17 91 17 54 33 84 33 60 0 -7 4 -10 9 -6 5 3 12 1 16 -5 3
-5 0 -10 -7 -10 -15 0 -44 -58 -34 -67 3 -4 6 0 6 8 0 11 2 11 10 -1 7 -11 10
-8 10 16 0 18 6 34 13 37 9 3 11 -17 9 -89 -3 -66 -1 -94 8 -94 7 0 10 -27 9
-87 -2 -94 -6 -113 -21 -92 -5 9 -6 4 -2 -15 4 -18 3 -27 -3 -23 -13 8 -14
-23 -1 -50 8 -17 8 -30 0 -48 -6 -14 -8 -25 -3 -25 5 0 11 6 14 13 8 21 19 0
24 -46 5 -44 5 -44 -30 -50 -20 -3 -52 -13 -71 -22 -35 -17 -84 -17 -161 0
-26 6 -33 3 -45 -19 -12 -24 -12 -28 6 -40 10 -8 22 -12 26 -10 5 3 17 -1 28
-9 25 -17 139 -14 152 5 7 9 11 10 14 2 3 -7 14 -9 25 -7 14 4 17 8 9 13 -8 5
-8 9 3 13 7 3 20 1 28 -4 10 -6 10 -9 2 -9 -7 0 -13 -5 -13 -11 0 -5 5 -7 11
-3 7 4 10 1 7 -6 -6 -20 -58 -35 -67 -21 -5 8 -15 9 -32 2 -24 -10 -24 -10 -1
-10 12 -1 22 -5 22 -11 0 -15 -33 -12 -56 5 -10 8 -28 14 -39 14 l-20 0 20
-10 c17 -8 16 -9 -7 -6 -15 2 -25 0 -22 -4 3 -5 21 -9 40 -9 23 0 33 -4 28
-11 -4 -8 -33 -10 -86 -7 -54 3 -77 1 -75 -6 5 -15 177 -21 177 -6 0 5 11 10
25 10 14 0 25 5 25 10 0 6 8 10 18 10 9 0 30 7 46 15 15 8 39 15 52 15 25 0
28 8 18 59 -6 26 -11 31 -35 31 -16 0 -37 -4 -47 -9 -87 -44 -122 -50 -219
-36 -42 6 -53 11 -53 26 0 13 7 19 24 19 14 0 28 -4 31 -10 3 -5 35 -10 71
-10 36 0 64 4 64 10 0 6 11 10 25 10 14 0 25 5 25 10 0 6 23 10 51 10 45 0 50
2 43 18 -4 9 -8 28 -9 42 0 14 -8 39 -18 56 -20 38 -25 97 -10 116 5 7 13 51
17 98 4 65 2 92 -9 114 -18 34 -19 145 -2 166 7 8 30 28 52 44 57 42 69 56 90
104 10 23 36 56 57 73 37 29 39 33 37 85 -2 50 -5 56 -36 75 -38 24 -54 18
-35 -12 10 -16 9 -26 -5 -57 -9 -20 -23 -43 -30 -50 -7 -8 -25 -29 -39 -48
-15 -19 -33 -34 -40 -34 -8 0 -14 -4 -14 -10 0 -5 -7 -10 -15 -10 -8 0 -15 -4
-15 -9 0 -5 -11 -12 -24 -15 -14 -3 -35 -21 -47 -39 -13 -17 -27 -33 -31 -35
-4 -2 -8 -11 -8 -21 0 -9 -5 -22 -10 -27 -6 -6 -13 -41 -17 -78 -3 -36 -10
-69 -14 -72 -5 -3 -9 -14 -9 -25 0 -10 -2 -19 -4 -19 -5 0 -126 111 -181 165
-48 48 -69 82 -55 90 6 4 6 13 1 23 -11 20 -23 50 -27 72 -9 37 -26 139 -31
182 -3 34 -13 57 -33 78 -15 17 -34 49 -42 73 -10 33 -18 43 -38 45 -16 2 -29
-4 -37 -18z m42 -10 c3 -5 -1 -10 -10 -10 -9 0 -13 5 -10 10 3 6 8 10 10 10 2
0 7 -4 10 -10z m-15 -30 c0 -5 -4 -10 -10 -10 -5 0 -10 5 -10 10 0 6 5 10 10
10 6 0 10 -4 10 -10z m30 -9 c0 -12 -20 -25 -27 -18 -7 7 6 27 18 27 5 0 9 -4
9 -9z m15 -31 c-3 -5 -10 -10 -16 -10 -5 0 -9 5 -9 10 0 6 7 10 16 10 8 0 12
-4 9 -10z m23 -48 c2 -18 -1 -32 -7 -32 -6 0 -11 9 -11 19 0 11 -3 27 -7 37
-4 12 -2 15 8 12 8 -2 15 -19 17 -36z m715 -119 c-4 -9 -22 -31 -40 -47 -18
-17 -33 -37 -33 -44 0 -7 -5 -10 -12 -6 -8 5 -9 0 -6 -14 4 -12 2 -22 -3 -22
-5 0 -9 8 -9 17 0 12 -9 5 -25 -19 -29 -43 -31 -50 -10 -42 8 4 15 15 15 26 0
10 5 16 10 13 19 -12 9 -30 -30 -58 -33 -23 -43 -26 -61 -17 -11 7 -23 9 -26
7 -2 -3 5 -8 16 -12 29 -9 27 -28 -1 -20 -18 5 -19 4 -8 -4 8 -5 11 -13 7 -17
-11 -11 -36 16 -30 34 4 14 3 15 -6 2 -5 -8 -13 -11 -17 -7 -9 9 45 67 63 67
7 0 13 5 13 11 0 6 9 9 20 6 11 -3 18 -2 15 3 -3 4 11 18 30 31 19 13 38 32
41 42 3 9 10 17 15 17 13 0 34 21 35 35 0 6 7 25 15 43 12 29 14 30 21 12 4
-11 4 -28 1 -37z m-193 -964 c0 -10 -4 -19 -10 -19 -5 0 -9 11 -8 24 3 28 18
24 18 -5z m3 -106 c-8 -3 -11 -14 -7 -27 6 -25 -20 -54 -50 -53 -17 0 -17 1
-2 12 9 7 16 18 16 26 0 12 2 12 9 0 6 -9 11 -10 15 -2 5 7 -4 14 -23 17 -17
4 -28 11 -25 16 4 5 15 8 25 5 10 -3 24 1 30 9 7 8 15 12 18 8 3 -4 0 -9 -6
-11z m-199 -557 c27 -9 44 -24 60 -52 11 -21 28 -47 37 -57 12 -13 18 -45 21
-110 3 -51 11 -104 18 -117 26 -49 30 -60 30 -79 0 -11 4 -21 10 -23 5 -2 12
-29 16 -60 l7 -58 -166 0 c-99 0 -185 5 -212 12 l-45 12 0 68 c0 38 4 76 9 86
5 9 21 44 36 77 15 33 32 69 38 80 37 69 57 117 57 134 0 11 5 23 10 26 6 3
10 22 10 41 0 38 6 40 64 20z m-199 -220 c-12 -18 -15 -36 -11 -60 8 -40 -9
-58 -18 -21 -8 31 2 74 22 98 22 25 27 13 7 -17z m15 -40 c0 -3 -4 -8 -10 -11
-5 -3 -10 -1 -10 4 0 6 5 11 10 11 6 0 10 -2 10 -4z m-53 -53 c-4 -3 -1 -13 6
-21 9 -12 9 -16 0 -19 -7 -3 -13 -17 -14 -31 0 -15 -4 -36 -8 -47 -5 -11 -2
-42 5 -70 8 -27 14 -51 14 -53 0 -2 -7 4 -16 12 -8 9 -12 21 -9 26 4 6 1 17
-5 25 -8 9 -10 29 -6 52 4 21 10 59 12 86 3 26 11 47 17 47 6 0 7 -3 4 -7z"/>
<path d="M704 2740 c0 -11 3 -20 7 -20 4 0 9 9 12 20 3 12 0 20 -7 20 -6 0
-12 -9 -12 -20z"/>
<path d="M214 2809 c-3 -6 -1 -16 5 -22 8 -8 11 -5 11 11 0 24 -5 28 -16 11z"/>
<path d="M566 2808 c3 -5 10 -6 15 -3 13 9 11 12 -6 12 -8 0 -12 -4 -9 -9z"/>
<path d="M250 2618 c0 -9 5 -20 10 -23 13 -8 13 5 0 25 -8 13 -10 13 -10 -2z"/>
<path d="M271 2564 c0 -11 3 -14 6 -6 3 7 2 16 -1 19 -3 4 -6 -2 -5 -13z"/>
<path d="M586 2567 c3 -10 9 -15 12 -12 3 3 0 11 -7 18 -10 9 -11 8 -5 -6z"/>
<path d="M623 2540 c0 -25 2 -35 4 -22 2 12 2 32 0 45 -2 12 -4 2 -4 -23z"/>
<path d="M630 2468 c0 -7 5 -20 10 -28 8 -12 10 -11 10 7 0 12 -4 25 -10 28
-5 3 -10 0 -10 -7z"/>
<path d="M371 2398 c6 -15 18 -29 25 -32 21 -8 17 2 -12 32 l-25 27 12 -27z"/>
<path d="M642 2395 c0 -16 2 -22 5 -12 2 9 2 23 0 30 -3 6 -5 -1 -5 -18z"/>
<path d="M450 2215 c-8 -45 -8 -47 2 -37 5 5 8 18 5 28 -3 11 -6 15 -7 9z"/>
<path d="M294 2158 c-3 -4 11 -8 30 -8 20 0 36 2 36 4 0 8 -61 12 -66 4z"/>
<path d="M250 2138 c0 -19 2 -20 10 -8 13 19 13 30 0 30 -5 0 -10 -10 -10 -22z"/>
<path d="M380 2140 c-12 -8 -10 -10 8 -10 13 0 20 4 17 10 -7 12 -6 12 -25 0z"/>
<path d="M648 2103 c-6 -23 1 -43 14 -43 7 0 6 5 -1 14 -8 9 -8 15 -2 18 6 2
7 9 2 16 -6 11 -9 10 -13 -5z"/>
<path d="M267 2023 c-2 -5 -1 -19 4 -33 7 -23 7 -23 8 8 1 31 -3 40 -12 25z"/>
<path d="M610 1930 c0 -5 7 -7 15 -4 8 4 15 8 15 10 0 2 -7 4 -15 4 -8 0 -15
-4 -15 -10z"/>
<path d="M335 1840 c3 -5 8 -10 11 -10 2 0 4 5 4 10 0 6 -5 10 -11 10 -5 0 -7
-4 -4 -10z"/>
<path d="M415 1770 c-4 -6 7 -10 27 -10 25 0 29 3 18 10 -19 13 -37 13 -45 0z"/>
<path d="M361 1614 c0 -11 3 -14 6 -6 3 7 2 16 -1 19 -3 4 -6 -2 -5 -13z"/>
<path d="M345 1579 c-4 -6 -5 -12 -2 -15 2 -3 7 2 10 11 7 17 1 20 -8 4z"/>
<path d="M323 1500 c0 -25 2 -35 4 -22 2 12 2 32 0 45 -2 12 -4 2 -4 -23z"/>
<path d="M590 1441 c0 -5 5 -13 10 -16 6 -3 10 -2 10 4 0 5 -4 13 -10 16 -5 3
-10 2 -10 -4z"/>
<path d="M341 1384 c0 -11 3 -14 6 -6 3 7 2 16 -1 19 -3 4 -6 -2 -5 -13z"/>
<path d="M465 1350 c27 -12 43 -12 25 0 -8 5 -22 9 -30 9 -10 0 -8 -3 5 -9z"/>
<path d="M630 1345 c0 -8 2 -15 4 -15 2 0 6 7 10 15 3 8 1 15 -4 15 -6 0 -10
-7 -10 -15z"/>
<path d="M650 1251 c0 -6 5 -13 10 -16 6 -3 10 1 10 9 0 9 -4 16 -10 16 -5 0
-10 -4 -10 -9z"/>
<path d="M696 965 c-9 -23 -8 -25 9 -25 17 0 19 9 6 28 -7 11 -10 10 -15 -3z"/>
<path d="M740 729 c0 -5 5 -7 10 -4 6 3 10 8 10 11 0 2 -4 4 -10 4 -5 0 -10
-5 -10 -11z"/>
<path d="M770 710 c0 -5 5 -10 10 -10 6 0 10 5 10 10 0 6 -4 10 -10 10 -5 0
-10 -4 -10 -10z"/>
<path d="M378 683 c6 -2 18 -2 25 0 6 3 1 5 -13 5 -14 0 -19 -2 -12 -5z"/>
<path d="M64 440 c0 -58 1 -81 3 -52 2 28 2 76 0 105 -2 28 -3 5 -3 -53z"/>
<path d="M1028 213 c6 -2 10 -9 7 -14 -4 -5 1 -6 10 -2 13 5 14 7 3 14 -7 5
-17 8 -23 8 -5 0 -4 -3 3 -6z"/>
</g>
</svg>
