<?xml version="1.0" standalone="no"?>
<!DOCTYPE svg PUBLIC "-//W3C//DTD SVG 20010904//EN"
 "http://www.w3.org/TR/2001/REC-SVG-20010904/DTD/svg10.dtd">
<svg version="1.0" xmlns="http://www.w3.org/2000/svg"
 width="316.000000pt" height="210.000000pt" viewBox="0 0 316.000000 210.000000"
 preserveAspectRatio="xMidYMid meet">
<g transform="translate(0.000000,210.000000) scale(0.100000,-0.100000)"
fill="#000000" stroke="none">
<path d="M1510 1931 c0 -26 -5 -52 -11 -58 -8 -8 -6 -19 5 -39 l15 -29 1 48
c0 34 4 47 14 47 8 0 18 -4 21 -10 6 -10 117 -15 126 -6 3 3 3 23 1 46 -3 34
-7 40 -21 34 -24 -10 -111 -14 -111 -4 0 4 -9 10 -20 13 -18 5 -20 0 -20 -42z
m139 -7 c2 -2 -4 -6 -13 -10 -21 -8 -106 5 -106 16 0 8 109 2 119 -6z"/>
<path d="M1481 1791 c-8 -5 -10 -14 -5 -22 16 -26 9 -54 -18 -71 -30 -19 -49
-69 -30 -76 15 -5 16 -132 2 -132 -5 0 -10 -9 -10 -20 0 -11 -4 -20 -10 -20
-5 0 -10 -6 -10 -14 0 -13 -13 -26 -81 -80 -8 -7 -30 -19 -47 -27 -18 -8 -32
-18 -32 -22 0 -5 -4 -6 -8 -3 -17 10 -91 -36 -104 -65 -7 -16 -17 -29 -21 -29
-5 0 -7 -23 -5 -50 l3 -50 -57 0 c-61 0 -66 -3 -44 -26 8 -7 14 -28 13 -46 -2
-33 -3 -33 -54 -35 -39 -1 -53 2 -53 12 0 10 -11 12 -41 8 -28 -4 -44 -2 -49
7 -6 9 -10 7 -15 -9 -6 -19 -14 -21 -76 -21 -48 0 -69 4 -69 13 0 8 -15 11
-50 9 -27 -2 -50 -8 -50 -13 0 -5 -25 -9 -55 -9 -48 0 -58 4 -83 30 -37 38
-52 38 -77 0 -19 -28 -55 -41 -55 -20 0 6 5 10 10 10 6 0 10 23 10 51 0 44 -4
55 -33 84 -41 41 -61 78 -53 101 7 23 -30 87 -46 82 -20 -7 -44 -61 -42 -97 1
-29 -7 -42 -43 -77 -33 -33 -43 -50 -44 -76 0 -18 0 -131 1 -251 1 -166 -2
-223 -12 -234 -10 -13 -10 -17 0 -20 9 -4 12 -48 12 -179 l0 -174 -25 0 c-14
0 -25 -4 -25 -10 0 -15 60 -12 66 3 10 26 17 797 8 822 -4 8 -2 15 4 15 6 0
12 -6 15 -12 2 -7 2 11 -1 41 -5 52 -4 54 17 48 18 -4 20 -3 11 8 -9 10 -3 16
24 25 37 12 46 26 46 71 0 19 4 28 11 23 6 -3 9 -17 6 -31 -2 -13 4 -41 14
-61 10 -20 18 -31 19 -23 0 11 3 11 15 1 18 -15 20 -31 2 -26 -6 1 -9 1 -4 -1
4 -3 7 -12 8 -21 0 -11 2 -12 6 -4 10 25 23 11 23 -27 0 -40 -14 -62 -23 -39
-4 10 -6 10 -6 0 -1 -6 8 -21 19 -32 19 -19 22 -19 50 -5 29 15 39 10 23 -11
-5 -5 -1 -2 8 8 9 9 19 14 23 11 3 -4 6 -1 6 5 0 7 -5 12 -12 12 -6 0 -8 3 -5
7 8 8 48 -27 42 -36 -2 -4 30 -8 71 -9 45 -1 74 2 74 8 0 5 20 10 45 10 25 0
45 -4 45 -9 0 -4 36 -9 80 -10 51 -1 80 2 80 8 0 13 87 15 94 2 3 -5 25 -8 48
-6 24 1 48 -1 53 -5 17 -13 30 13 30 60 0 44 1 45 35 48 47 5 55 14 54 61 0
26 4 42 14 46 7 3 12 11 9 18 -2 6 5 22 16 34 16 18 24 20 39 12 10 -6 27 -8
36 -6 12 3 11 5 -5 6 -28 1 -31 21 -3 21 11 0 20 5 20 11 0 7 10 9 25 5 25 -6
72 10 61 21 -3 3 -12 0 -21 -7 -9 -7 -18 -11 -20 -8 -3 2 16 19 41 37 26 18
49 29 52 26 4 -3 0 -10 -8 -15 -8 -6 -10 -10 -4 -10 17 0 56 38 45 44 -5 3
-11 0 -14 -6 -2 -7 -8 -9 -13 -5 -5 5 1 17 14 27 13 11 24 23 25 27 1 4 5 7 8
6 4 -1 5 6 2 16 -3 10 0 22 6 25 14 9 14 139 0 153 -23 23 28 68 71 64 10 -1
11 1 4 6 -9 7 -12 43 -6 76 5 22 22 -9 22 -39 0 -27 6 -38 28 -52 21 -13 27
-24 26 -49 -1 -18 -6 -39 -13 -46 -8 -11 -8 -22 3 -49 8 -19 12 -45 9 -56 -3
-12 -1 -22 5 -22 6 0 13 -14 17 -30 4 -17 10 -28 15 -25 4 3 11 -2 14 -11 4
-9 2 -13 -5 -8 -8 4 -7 0 0 -15 7 -11 14 -21 17 -21 3 0 2 5 -1 10 -3 6 1 10
11 10 11 0 15 -6 11 -20 -3 -11 0 -23 5 -27 7 -3 8 -1 4 5 -4 7 -3 12 3 12 17
0 61 -23 61 -32 0 -4 9 -8 20 -8 11 0 20 -4 20 -10 0 -5 8 -10 18 -10 32 0 82
-30 81 -48 -1 -16 -2 -16 -6 -1 -4 16 -69 36 -79 26 -3 -3 11 -8 31 -11 19 -4
33 -11 30 -17 -4 -5 -1 -9 4 -9 6 0 12 -12 12 -27 2 -27 2 -27 6 -3 10 55 23
42 23 -22 0 -73 4 -78 69 -78 36 0 38 -2 38 -32 0 -68 6 -87 24 -78 9 5 29 9
45 9 16 -1 57 2 90 6 42 5 63 4 68 -4 9 -14 132 -15 141 -1 8 13 85 13 85 0 0
-5 -15 -8 -33 -7 -18 2 -39 -2 -45 -9 -9 -10 -4 -12 26 -7 20 2 44 7 52 10 8
3 42 5 75 4 49 -2 64 2 83 19 16 15 22 17 22 7 0 -17 37 -30 43 -14 2 6 13 4
28 -6 14 -10 44 -18 67 -19 27 -1 42 -6 42 -14 0 -7 9 -18 19 -24 25 -13 61
-71 61 -98 0 -11 14 -32 31 -46 31 -26 31 -27 27 -106 -3 -44 -1 -80 4 -80 4
0 8 -5 8 -11 0 -5 -3 -8 -7 -6 -5 3 -8 -77 -8 -176 0 -152 2 -183 15 -189 24
-11 180 -9 180 2 0 6 -34 10 -82 10 l-83 0 2 172 c1 109 6 174 13 176 16 6 12
32 -5 32 -12 0 -15 15 -15 75 0 47 4 75 11 75 6 0 4 7 -5 15 -8 8 -19 15 -24
15 -14 0 -44 36 -42 52 3 20 -11 58 -21 58 -5 0 -9 6 -9 14 0 7 -9 16 -19 19
-12 3 -23 18 -28 38 -9 33 -9 33 -64 30 -52 -2 -57 0 -88 34 l-33 37 -37 -36
c-32 -32 -43 -36 -87 -36 -27 0 -55 5 -61 11 -16 16 -93 17 -93 2 0 -9 -21
-13 -70 -13 -50 0 -70 4 -70 13 0 16 -101 16 -115 0 -6 -8 -28 -12 -55 -10
l-44 3 1 39 c0 22 6 41 12 43 31 10 4 22 -50 22 l-61 0 6 45 c5 29 4 45 -3 45
-6 0 -11 7 -11 16 0 26 -65 84 -95 84 -14 0 -25 5 -25 10 0 6 -9 10 -20 10
-11 0 -20 3 -20 8 0 4 -12 13 -27 20 -41 18 -88 63 -104 100 -7 17 -17 32 -21
32 -14 0 -9 138 4 142 18 6 -18 75 -43 83 -17 6 -20 14 -17 48 3 41 2 42 -32
45 -19 1 -41 -2 -49 -7z m-1300 -505 c-7 -8 -11 -29 -9 -48 2 -18 -1 -34 -7
-35 -5 -2 -8 14 -6 35 3 39 19 77 28 68 3 -3 1 -12 -6 -20z m2505 -284 c-4 -3
-11 0 -16 8 -15 24 -11 33 6 15 9 -9 13 -19 10 -23z"/>
<path d="M1466 1655 c-18 -14 -18 -16 -4 -27 9 -7 19 -22 22 -33 3 -11 3 -2 0
19 -4 26 -1 42 8 47 7 5 9 9 3 9 -5 -1 -19 -7 -29 -15z"/>
<path d="M1559 1648 c4 -13 6 -30 4 -38 -3 -10 0 -9 7 3 12 18 5 57 -10 57 -6
0 -6 -10 -1 -22z"/>
<path d="M1482 1515 c0 -16 2 -22 5 -12 2 9 2 23 0 30 -3 6 -5 -1 -5 -18z"/>
<path d="M1560 1504 c0 -10 5 -26 10 -34 8 -11 9 -7 4 15 -8 37 -14 45 -14 19z"/>
<path d="M1691 1444 c0 -11 3 -14 6 -6 3 7 2 16 -1 19 -3 4 -6 -2 -5 -13z"/>
<path d="M170 1379 c0 -17 4 -28 10 -24 6 3 10 17 10 31 0 13 -4 24 -10 24 -5
0 -10 -14 -10 -31z"/>
<path d="M1715 1310 c3 -5 8 -10 11 -10 2 0 4 5 4 10 0 6 -5 10 -11 10 -5 0
-7 -4 -4 -10z"/>
<path d="M1050 1064 c0 -11 5 -26 10 -34 8 -12 10 -10 10 8 0 13 3 21 8 19 4
-3 16 -1 27 4 19 7 19 8 -2 8 -12 1 -28 4 -37 7 -11 4 -16 0 -16 -12z"/>
<path d="M1967 1063 c12 -2 24 -12 26 -21 3 -12 5 -10 6 6 1 18 -4 22 -26 21
-23 -1 -24 -2 -6 -6z"/>
<path d="M245 1050 c-3 -6 1 -7 9 -4 18 7 21 14 7 14 -6 0 -13 -4 -16 -10z"/>
<path d="M589 979 c-10 -6 -4 -9 19 -9 17 0 32 2 32 4 0 9 -39 13 -51 5z"/>
<path d="M820 978 c0 -5 18 -8 39 -8 22 0 43 -4 46 -10 3 -5 25 -10 48 -10 26
0 37 3 29 9 -7 4 -24 6 -38 3 -13 -2 -31 1 -39 8 -16 13 -85 20 -85 8z"/>
<path d="M2161 979 c-33 -13 -24 -16 34 -11 38 4 45 7 30 13 -26 10 -35 10
-64 -2z"/>
<path d="M545 960 c-3 -5 -1 -10 4 -10 6 0 11 5 11 10 0 6 -2 10 -4 10 -3 0
-8 -4 -11 -10z"/>
<path d="M2058 958 c-8 -4 4 -8 30 -8 23 0 42 2 42 4 0 8 -60 12 -72 4z"/>
<path d="M2348 953 c7 -3 16 -2 19 1 4 3 -2 6 -13 5 -11 0 -14 -3 -6 -6z"/>
<path d="M2822 925 c15 -16 30 -26 33 -23 4 3 -9 16 -27 28 l-33 23 27 -28z"/>
<path d="M2860 876 c0 -2 7 -9 15 -16 13 -11 14 -10 9 4 -5 14 -24 23 -24 12z"/>
<path d="M101 834 c0 -11 3 -14 6 -6 3 7 2 16 -1 19 -3 4 -6 -2 -5 -13z"/>
<path d="M2880 829 c0 -5 5 -7 10 -4 6 3 10 8 10 11 0 2 -4 4 -10 4 -5 0 -10
-5 -10 -11z"/>
<path d="M2916 775 c-3 -10 -4 -20 -1 -23 3 -3 6 1 6 9 1 8 7 -13 14 -46 l13
-60 1 51 c1 56 -20 101 -33 69z"/>
<path d="M28 183 c7 -3 16 -2 19 1 4 3 -2 6 -13 5 -11 0 -14 -3 -6 -6z"/>
<path d="M3048 183 c23 -2 59 -2 80 0 20 2 1 4 -43 4 -44 0 -61 -2 -37 -4z"/>
</g>
</svg>
